<svg width="125" height="125" viewBox="0 0 125 125" fill="none" xmlns="http://www.w3.org/2000/svg">
<path d="M99.8176 12.5775H104.38L104.073 29.39H100.125L99.8176 12.5775Z" fill="#EBEBEB"/>
<path d="M104.073 31.495H100.128V35.44H104.073V31.495Z" fill="#EBEBEB"/>
<path d="M110.413 26.3575L114.123 27.4375L109.895 41.035L106.685 40.1L110.413 26.3575Z" fill="#EBEBEB"/>
<path d="M109.393 42.7487L106.186 41.8152L105.253 45.0221L108.46 45.9556L109.393 42.7487Z" fill="#EBEBEB"/>
<path d="M65.6726 20.7875L68.6276 19.39L73.5726 30.38L71.0151 31.59L65.6726 20.7875Z" fill="#EBEBEB"/>
<path d="M74.2168 31.7501L71.6599 32.9572L72.8669 35.5141L75.4239 34.3071L74.2168 31.7501Z" fill="#EBEBEB"/>
<path d="M110.865 89.7075H87.5452C87.5452 89.7075 89.8577 83.3925 93.4177 83.3925C96.9777 83.3925 98.0902 87.75 98.0902 87.75C98.0902 87.75 100.49 85.3825 102.463 85.3825C104.435 85.3825 106.15 88.5125 106.15 88.5125C106.15 88.5125 108.935 86.83 110.865 89.7075Z" fill="#EBEBEB"/>
<path d="M81.045 80.075H68.75C68.75 80.075 71.5 76.0925 73.6625 76.0925C75.825 76.0925 76.4625 78.75 76.4625 78.75C76.4625 78.75 77.9925 77.5125 79.4075 77.7325C80.8225 77.9525 81.045 80.075 81.045 80.075Z" fill="#EBEBEB"/>
<path d="M38.5351 47.3725H14.5801C14.5801 47.3725 17.8601 40.05 21.3701 39.59C24.8801 39.13 26.5576 45.0325 26.5576 45.0325C26.5576 45.0325 28.8076 42.9475 30.6001 42.9475C32.3926 42.9475 33.7551 45.6975 33.7551 45.6975C33.7551 45.6975 37.3151 43.8125 38.5351 47.3725Z" fill="#EBEBEB"/>
<path d="M61.3026 26.31H45.1201C45.1201 26.31 47.9001 21 50.9151 20.925C53.9301 20.85 55.5176 24.9425 55.5176 24.9425C55.5176 24.9425 60.2076 21.1775 61.3026 26.31Z" fill="#EBEBEB"/>
<path d="M88.94 29.2125H85.96V110.227H88.94V29.2125Z" fill="#DBDBDB"/>
<path d="M87.4499 15.3525L64.0349 55.9075H110.865L87.4499 15.3525Z" fill="#FF725E"/>
<path d="M87.45 21.2275L69.125 52.97H105.777L87.45 21.2275Z" fill="white"/>
<path d="M85.595 30.4125H89.3075L89.0575 44.0975H85.845L85.595 30.4125Z" fill="#FF725E"/>
<path d="M89.055 45.8125H85.845V49.0225H89.055V45.8125Z" fill="#FF725E"/>
<path d="M110.865 58.2675H64.0349V73.935H110.865V58.2675Z" fill="#FF725E"/>
<path d="M109.812 72.89H65.0874V59.3125H109.812V72.89ZM65.3374 72.64H109.562V59.5625H65.3374V72.64Z" fill="white"/>
<path d="M71.1975 61.62H72.125L72.71 63.3375L73.2925 61.62H74.23L73.345 63.98L74.0025 65.64L75.4725 61.605H76.5675L74.455 66.7925H73.6075L72.71 64.615L71.81 66.7925H70.9625L68.865 61.605H69.9475L71.4225 65.64L72.065 63.98L71.1975 61.62Z" fill="#263238"/>
<path d="M78.1299 61.605H79.0224L80.9999 66.7925H79.9624L79.4749 65.5H77.6624L77.1874 66.7925H76.1499L78.1299 61.605ZM79.2924 64.79L78.5774 62.75L77.8274 64.7875L79.2924 64.79Z" fill="#263238"/>
<path d="M81.5649 66.7925V61.605H83.8599C84.0886 61.6027 84.3147 61.6541 84.5199 61.755C84.718 61.8517 84.8954 61.9858 85.0424 62.15C85.19 62.3126 85.3069 62.5007 85.3874 62.705C85.4679 62.9036 85.5095 63.1157 85.5099 63.33C85.5138 63.6532 85.4272 63.971 85.2599 64.2475C85.1003 64.5133 84.8605 64.7216 84.5749 64.8425L85.7599 66.7925H84.6274L83.5674 65.055H82.5674V66.7925H81.5649ZM82.5649 64.17H83.8299C83.9173 64.1685 84.0029 64.1462 84.0799 64.105C84.1606 64.0597 84.2312 63.9985 84.2874 63.925C84.3483 63.844 84.3956 63.7537 84.4274 63.6575C84.461 63.5516 84.4779 63.4411 84.4774 63.33C84.4783 63.215 84.4589 63.1007 84.4199 62.9925C84.3825 62.896 84.3293 62.8065 84.2624 62.7275C84.1996 62.654 84.1221 62.5944 84.0349 62.5525C83.9575 62.5129 83.872 62.4915 83.7849 62.49H82.5649V64.17Z" fill="#263238"/>
<path d="M87.4324 63.4675V66.7925H86.4324V61.605H87.2124L89.9099 65V61.6125H90.9099V66.7925H90.0999L87.4324 63.4675Z" fill="#263238"/>
<path d="M92 66.7925V61.605H93V66.7925H92Z" fill="#263238"/>
<path d="M95.0974 63.4675V66.7925H94.0974V61.605H94.8774L97.5749 65V61.6125H98.5749V66.7925H97.7574L95.0974 63.4675Z" fill="#263238"/>
<path d="M103.265 66.2075C103.08 66.4047 102.856 66.5617 102.607 66.6688C102.358 66.7759 102.091 66.8307 101.82 66.83C101.488 66.8325 101.159 66.7625 100.857 66.625C100.562 66.4921 100.297 66.3007 100.077 66.0625C99.8501 65.8163 99.6712 65.5297 99.5499 65.2175C99.4187 64.884 99.3533 64.5283 99.3574 64.17C99.3521 63.4885 99.6132 62.8319 100.085 62.34C100.312 62.1016 100.584 61.9105 100.885 61.7775C101.199 61.6357 101.54 61.564 101.885 61.5675C102.322 61.5554 102.754 61.6616 103.135 61.875C103.472 62.0673 103.746 62.3553 103.92 62.7025L103.17 63.2575C103.05 63.0093 102.858 62.8029 102.62 62.665C102.385 62.5287 102.119 62.4579 101.847 62.46C101.638 62.4582 101.432 62.5062 101.245 62.6C101.063 62.6912 100.904 62.8209 100.777 62.98C100.646 63.1464 100.545 63.3342 100.477 63.535C100.406 63.7494 100.371 63.974 100.372 64.2C100.371 64.4326 100.411 64.6636 100.49 64.8825C100.562 65.0845 100.671 65.2717 100.81 65.435C100.946 65.589 101.112 65.7139 101.297 65.8025C101.488 65.8932 101.696 65.9394 101.907 65.9375C102.172 65.929 102.432 65.861 102.667 65.7385C102.902 65.6161 103.106 65.4422 103.265 65.23V64.865H102.22V64.115H104.1V66.7825H103.265V66.2075Z" fill="#263238"/>
<path d="M105.055 64.8425V61.555H106.035V64.8425H105.055ZM105.055 66.7925V65.69H106.035V66.7925H105.055Z" fill="#263238"/>
<path d="M70.3125 68.3125H70.785L71.83 71.0625H71.28L71.03 70.3775H70.07L69.82 71.0625H69.27L70.3125 68.3125ZM70.9275 69.9975L70.55 68.92L70.155 70L70.9275 69.9975Z" fill="white"/>
<path d="M73.9123 68.78H73.0348V71.0575H72.4998V68.78H71.6223V68.3125H73.9073L73.9123 68.78Z" fill="white"/>
<path d="M76.305 68.78H75.4275V71.0575H74.8975V68.78H74.02V68.3125H76.305V68.78Z" fill="white"/>
<path d="M78.55 70.59V71.0575H76.645V68.3075H78.515V68.775H77.1775V69.4375H78.335V69.87H77.1775V70.585L78.55 70.59Z" fill="white"/>
<path d="M79.4998 69.2975V71.0475H78.9648V68.2975H79.3798L80.8098 70.1V68.3025H81.3423V71.0525H80.9099L79.4998 69.2975Z" fill="white"/>
<path d="M83.9698 68.78H83.0923V71.0575H82.5623V68.78H81.6848V68.3125H83.9698V68.78Z" fill="white"/>
<path d="M84.3098 71.0575V68.3075H84.8448V71.0575H84.3098Z" fill="white"/>
<path d="M86.5875 71.0775C86.3983 71.0795 86.2111 71.0384 86.04 70.9575C85.8804 70.8827 85.7376 70.7764 85.62 70.645C85.5016 70.5154 85.4092 70.3643 85.3475 70.2C85.2832 70.0359 85.2501 69.8612 85.25 69.685C85.2499 69.505 85.2847 69.3267 85.3525 69.16C85.4181 68.9953 85.5139 68.8444 85.635 68.715C85.7554 68.5848 85.9008 68.4802 86.0625 68.4075C86.2312 68.3307 86.4146 68.2915 86.6 68.2925C86.7878 68.2912 86.9735 68.3331 87.1425 68.415C87.3021 68.4932 87.4447 68.6019 87.5625 68.735C87.6784 68.8669 87.7699 69.0185 87.8325 69.1825C87.9283 69.4302 87.9526 69.6997 87.9026 69.9605C87.8527 70.2213 87.7305 70.4628 87.55 70.6575C87.4303 70.7867 87.2857 70.8904 87.125 70.9625C86.9562 71.0391 86.7729 71.0783 86.5875 71.0775ZM85.79 69.685C85.7908 69.8021 85.8093 69.9185 85.845 70.03C85.8793 70.1363 85.9326 70.2354 86.0025 70.3225C86.071 70.4072 86.156 70.477 86.2525 70.5275C86.3583 70.5794 86.4746 70.6064 86.5925 70.6064C86.7104 70.6064 86.8267 70.5794 86.9325 70.5275C87.03 70.4764 87.1153 70.4047 87.1825 70.3175C87.2511 70.2291 87.3036 70.1292 87.3375 70.0225C87.3722 69.9142 87.3899 69.8012 87.39 69.6875C87.3896 69.5702 87.3702 69.4536 87.3325 69.3425C87.2973 69.2367 87.244 69.1377 87.175 69.05C87.1069 68.9656 87.0217 68.8966 86.925 68.8475C86.8196 68.7957 86.7037 68.7687 86.5863 68.7687C86.4688 68.7687 86.3529 68.7957 86.2475 68.8475C86.15 68.8986 86.0647 68.9703 85.9975 69.0575C85.9301 69.1455 85.8785 69.2444 85.845 69.35C85.8095 69.4582 85.7909 69.5712 85.79 69.685Z" fill="white"/>
<path d="M88.8724 69.2975V71.0475H88.3374V68.2975H88.7499L90.1799 70.1V68.3025H90.7124V71.0525H90.2799L88.8724 69.2975Z" fill="white"/>
<path d="M92.2148 71.0575V68.3075H93.3798C93.5011 68.307 93.6209 68.3343 93.7299 68.3875C93.8335 68.4391 93.9268 68.5094 94.0048 68.595C94.082 68.6822 94.1438 68.782 94.1873 68.89C94.2293 68.995 94.2513 69.1069 94.2523 69.22C94.2527 69.3354 94.2315 69.4499 94.1898 69.5575C94.1513 69.665 94.0928 69.7643 94.0173 69.85C93.9415 69.9352 93.8498 70.0049 93.7473 70.055C93.6383 70.1077 93.5184 70.1342 93.3973 70.1325H92.7498V71.0525L92.2148 71.0575ZM92.7498 69.67H93.3673C93.4155 69.6712 93.4633 69.6609 93.5068 69.6401C93.5502 69.6192 93.5881 69.5883 93.6173 69.55C93.6888 69.4573 93.7243 69.3419 93.7173 69.225C93.7186 69.161 93.7076 69.0973 93.6848 69.0375C93.6669 68.9864 93.6398 68.9389 93.6049 68.8975C93.5734 68.8591 93.5331 68.8291 93.4874 68.81C93.4441 68.7906 93.3973 68.7804 93.3498 68.78H92.7498V69.67Z" fill="white"/>
<path d="M94.625 71.0575V68.3075H95.1575V70.585H96.5575V71.0525L94.625 71.0575Z" fill="white"/>
<path d="M98.7873 70.59V71.0575H96.8823V68.3075H98.7498V68.775H97.4123V69.4375H98.5673V69.87H97.4123V70.585L98.7873 70.59Z" fill="white"/>
<path d="M99.985 68.3125H100.457L101.5 71.0625H100.952L100.702 70.3775H99.75L99.5 71.0625H98.95L99.985 68.3125ZM100.6 70L100.22 68.9225L99.8275 70H100.6Z" fill="white"/>
<path d="M103.395 69.0325C103.365 69.0041 103.333 68.979 103.297 68.9575C103.241 68.9235 103.183 68.8934 103.122 68.8675C103.051 68.8362 102.976 68.8111 102.9 68.7925C102.818 68.7712 102.734 68.7602 102.65 68.76C102.534 68.7514 102.418 68.7803 102.32 68.8425C102.285 68.8687 102.257 68.9031 102.238 68.9428C102.219 68.9825 102.21 69.0262 102.212 69.07C102.21 69.1206 102.224 69.1706 102.252 69.2125C102.284 69.2531 102.324 69.2864 102.37 69.31C102.432 69.3423 102.498 69.3682 102.565 69.3875L102.837 69.46C102.972 69.4975 103.087 69.535 103.205 69.5775C103.305 69.614 103.399 69.6664 103.482 69.7325C103.557 69.7915 103.617 69.8668 103.657 69.9525C103.702 70.0531 103.724 70.1625 103.72 70.2725C103.724 70.4032 103.695 70.5328 103.637 70.65C103.584 70.7507 103.507 70.8367 103.412 70.9C103.314 70.9668 103.204 71.0151 103.087 71.0425C102.961 71.0709 102.832 71.0851 102.702 71.085C102.496 71.0853 102.29 71.0541 102.092 70.9925C101.9 70.9341 101.717 70.8455 101.552 70.73L101.787 70.27C101.826 70.304 101.868 70.3342 101.912 70.36C101.982 70.4021 102.053 70.4397 102.127 70.4725C102.216 70.5124 102.308 70.5442 102.402 70.5675C102.503 70.5934 102.606 70.6068 102.71 70.6075C103.005 70.6075 103.152 70.5125 103.152 70.325C103.153 70.2701 103.135 70.2165 103.102 70.1725C103.062 70.1272 103.013 70.0906 102.957 70.065C102.886 70.0299 102.812 70.0015 102.735 69.98L102.44 69.895C102.323 69.8643 102.209 69.825 102.097 69.7775C102.007 69.7415 101.922 69.6908 101.847 69.6275C101.785 69.5715 101.735 69.5023 101.702 69.425C101.668 69.3385 101.65 69.2458 101.652 69.1525C101.651 69.025 101.677 68.8986 101.73 68.7825C101.78 68.6765 101.854 68.5834 101.945 68.51C102.041 68.4373 102.15 68.3822 102.265 68.3475C102.391 68.3086 102.523 68.2892 102.655 68.29C102.837 68.2889 103.017 68.3203 103.187 68.3825C103.337 68.4363 103.48 68.5086 103.612 68.5975L103.395 69.0325Z" fill="white"/>
<path d="M106.035 70.59V71.0575H104.13V68.3075H106V68.775H104.662V69.4375H105.817V69.87H104.662V70.585L106.035 70.59Z" fill="white"/>
<path d="M54.875 110.22H33.23C33.05 109.523 32.8775 108.838 32.705 108.163C32.5075 107.385 32.3125 106.628 32.1275 105.89C32.085 105.725 32.0425 105.56 32 105.39C31.8575 104.825 31.7175 104.273 31.58 103.738C31.4975 103.413 31.415 103.09 31.33 102.773C31.245 102.455 31.165 102.13 31.08 101.82C31.0575 101.738 31.04 101.655 31.0175 101.57C30.995 101.485 30.9725 101.39 30.95 101.303C30.9275 101.215 30.895 101.09 30.8675 100.983C30.8375 100.87 30.81 100.76 30.7825 100.65L30.6275 100.035C30.55 99.74 30.4775 99.4475 30.405 99.165C30.375 99.0425 30.3425 98.915 30.3125 98.7975C30.2608 98.5992 30.2108 98.4067 30.1625 98.22C30.13 98.0925 30.1 97.97 30.07 97.85C29.9425 97.35 29.82 96.885 29.715 96.45C29.6825 96.335 29.6575 96.2225 29.625 96.1125C29.58 95.9225 29.5325 95.7425 29.49 95.5675C29.46 95.4575 29.4325 95.35 29.4075 95.245C29.31 94.8725 29.2225 94.5325 29.1575 94.2325C29.135 94.155 29.115 94.0775 29.095 94.0025C29.0475 93.805 29 93.63 28.9625 93.4725C28.945 93.41 28.9325 93.35 28.915 93.295C28.8975 93.24 28.885 93.175 28.87 93.1225C28.855 93.07 28.8525 93.045 28.8425 93.0125C28.8325 92.98 28.815 92.9075 28.805 92.865C28.8013 92.8429 28.7954 92.8211 28.7875 92.8C28.755 92.67 28.74 92.605 28.74 92.605H49.81C49.81 92.605 50.5025 94.995 51.615 98.855C51.84 99.64 52.0825 100.488 52.345 101.388C53.0875 103.97 53.9475 106.97 54.875 110.22Z" fill="#37474F"/>
<path d="M36.7726 110.22H36.2326C35.4326 106.903 34.6568 103.581 33.9051 100.253C33.7226 99.445 33.5451 98.635 33.3676 97.8225C33.3501 97.745 33.3326 97.6725 33.3176 97.595C33.3176 97.555 33.3701 97.5375 33.3801 97.5775L33.4026 97.6525C33.6476 98.5225 33.8901 99.3942 34.1301 100.268C35.0435 103.576 35.9243 106.893 36.7726 110.22Z" fill="#263238"/>
<path d="M49.13 92.62L48.2025 97.275L47.4375 101.093L46.14 107.593L46.0075 108.258L45.785 109.37L45.6175 110.213H33.2275L32.705 108.155C32.5075 107.378 32.3125 106.62 32.1275 105.883C32.085 105.718 32.0425 105.553 32 105.383C31.8575 104.818 31.7175 104.265 31.58 103.73C31.4975 103.405 31.415 103.083 31.33 102.765C31.245 102.448 31.165 102.123 31.08 101.813C31.0575 101.73 31.04 101.648 31.0175 101.563C30.995 101.478 30.9725 101.383 30.95 101.295C30.9275 101.208 30.895 101.083 30.8675 100.975C30.8375 100.863 30.81 100.753 30.7825 100.643L30.6275 100.028C30.55 99.7325 30.4775 99.44 30.405 99.1575C30.3725 99.0325 30.3425 98.9075 30.3125 98.79C30.2608 98.5917 30.2108 98.3992 30.1625 98.2125C30.13 98.085 30.1 97.9625 30.07 97.8425C29.9425 97.3425 29.82 96.8775 29.715 96.4425C29.6825 96.3275 29.6575 96.215 29.625 96.105C29.58 95.915 29.5325 95.735 29.49 95.56C29.46 95.45 29.4325 95.3425 29.4075 95.2375C29.31 94.865 29.2225 94.525 29.1575 94.225C29.135 94.1475 29.115 94.07 29.095 93.995C29.0475 93.7975 29 93.6225 28.9625 93.465C28.945 93.4025 28.9325 93.3425 28.915 93.2875C28.8975 93.2325 28.885 93.1675 28.87 93.115C28.855 93.0625 28.8525 93.0375 28.8425 93.005C28.8325 92.9725 28.815 92.9 28.805 92.8575C28.8013 92.8353 28.7954 92.8136 28.7875 92.7925C28.755 92.6625 28.74 92.5975 28.74 92.5975L49.13 92.62Z" fill="#263238"/>
<path d="M49.135 92.61C49.135 92.725 49.045 93.98 48.8425 95.8975C48.785 96.4575 48.7175 97.0725 48.6375 97.73C48.515 98.77 48.36 99.9175 48.17 101.13C47.8475 103.245 47.42 105.55 46.8775 107.805C46.6825 108.618 46.4675 109.423 46.24 110.21H19.0425C19.3625 106.065 19.6575 102.315 19.89 99.36C20.215 95.2025 20.425 92.61 20.425 92.61H45.095H49.135Z" fill="#37474F"/>
<path d="M49.0774 95.1101C49.0449 96.0826 49.0049 97.0551 48.9424 98.0226C48.8749 99.0726 48.7799 100.123 48.6424 101.17C48.6424 101.208 48.6424 101.248 48.6424 101.285C48.5124 102.268 48.3674 103.245 48.1999 104.223C48.0424 105.133 47.9274 106.115 47.5249 106.958C47.3731 107.283 47.1572 107.575 46.8899 107.815C46.6449 108.039 46.3447 108.195 46.0199 108.265C45.9668 108.279 45.9123 108.288 45.8574 108.293H45.8099C45.8197 108.298 45.8277 108.307 45.833 108.317C45.8383 108.327 45.8407 108.339 45.8399 108.35C45.8399 108.678 45.8399 109.01 45.8024 109.333C45.8024 109.348 45.8024 109.36 45.8024 109.375C45.7699 109.658 45.7174 109.938 45.6649 110.218H45.1974C45.198 110.212 45.198 110.206 45.1974 110.2C45.2799 109.893 45.3474 109.583 45.4249 109.273C45.5024 108.963 45.6099 108.648 45.6749 108.328C45.6765 108.321 45.6792 108.315 45.6831 108.31C45.687 108.305 45.6919 108.301 45.6974 108.298C45.4012 108.312 45.1077 108.234 44.8565 108.077C44.6054 107.919 44.4085 107.688 44.2924 107.415C44.175 106.998 44.1672 106.558 44.2699 106.138C44.3549 105.58 44.4374 105.025 44.5199 104.468C44.6799 103.443 44.8849 102.433 45.0649 101.415L45.1474 100.95C45.5124 98.8801 45.8974 96.8076 46.3524 94.7576C46.3699 94.6701 46.3874 94.5851 46.4074 94.5076C46.4274 94.4301 46.5124 94.4676 46.5074 94.5226C46.4924 94.6601 46.4799 94.8001 46.4624 94.9376C46.3824 95.7251 46.2899 96.5076 46.1799 97.2901C46.0474 98.2101 45.9574 99.1326 45.8274 100.053C45.7849 100.365 45.7399 100.678 45.6949 100.99C45.4824 102.503 45.2624 104.013 45.0049 105.52C44.8849 106.22 44.4499 107.473 45.4549 107.69C45.6855 107.741 45.9263 107.711 46.1374 107.605C46.5826 107.337 46.9156 106.917 47.0749 106.423C47.3206 105.599 47.4995 104.757 47.6099 103.905C47.7766 102.983 47.9224 102.06 48.0474 101.135C48.2124 99.9801 48.3824 98.8301 48.5624 97.6776L48.8399 95.9151C48.8849 95.6451 48.9274 95.3726 48.9724 95.1001C48.9849 95.0351 49.0774 95.0526 49.0774 95.1101Z" fill="#263238"/>
<path d="M25.0001 102.34C26.1326 102.328 27.2594 102.177 28.3551 101.89C28.8551 101.76 29.3551 101.598 29.8551 101.435C30.346 101.299 30.8055 101.068 31.2076 100.755C31.9576 100.098 32.3251 99.0626 32.6576 98.1426C33.0204 97.1047 33.3144 96.0441 33.5376 94.9676C33.5376 94.9151 33.6251 94.9326 33.6276 94.9826C33.6546 96.1994 33.5004 97.4136 33.1701 98.5851C32.8976 99.5851 32.5301 100.69 31.7251 101.388C30.8801 102.12 29.7251 102.388 28.6501 102.513C27.4346 102.654 26.2059 102.636 24.9951 102.46C24.9872 102.46 24.9794 102.458 24.9723 102.455C24.9651 102.451 24.9587 102.447 24.9534 102.441C24.948 102.435 24.9439 102.428 24.9412 102.421C24.9385 102.413 24.9372 102.405 24.9376 102.398C24.9379 102.39 24.9398 102.382 24.9431 102.375C24.9464 102.368 24.9511 102.361 24.9569 102.356C24.9627 102.351 24.9695 102.346 24.9769 102.344C24.9843 102.341 24.9922 102.34 25.0001 102.34Z" fill="#263238"/>
<path d="M23.1225 95C23.0625 96.5217 22.9991 98.045 22.9325 99.57C22.7741 103.12 22.6025 106.67 22.4175 110.22H21.9175C22.1525 106.66 22.4025 103.105 22.6675 99.555C22.7675 98.035 22.8783 96.5167 23 95C23 94.9125 23.1275 94.9175 23.1225 95Z" fill="#263238"/>
<path d="M44.93 61.2725C48.6625 65.7925 62 82.435 60.1225 87.07C58.22 91.765 53.7675 94.9925 51.45 91.7225C49.5375 89.025 42.3375 70.3525 41.3075 65.53C40.3275 60.94 41.25 56.83 44.93 61.2725Z" fill="#D3766A"/>
<path d="M43.8576 77.5425L57.7251 74.7925C57.7251 74.7925 47.9626 62.69 44.0876 59.94C39.7251 56.8475 39.0876 59.755 39.9076 64.7725C40.7276 69.79 43.8576 77.5425 43.8576 77.5425Z" fill="#FF725E"/>
<path d="M57.7251 74.785L43.8576 77.535C43.8576 77.535 40.7176 69.785 39.9076 64.7575C39.0976 59.73 39.7251 56.8325 44.0876 59.925C44.3076 60.0825 44.5476 60.27 44.8051 60.4825L45.1201 60.75C46.5276 61.9725 48.3451 63.8775 50.1601 65.89L50.2601 66C51.6901 67.5925 53.1176 69.25 54.3351 70.685L54.8351 71.2925C56.5476 73.325 57.7251 74.785 57.7251 74.785Z" fill="#FF725E"/>
<path d="M47.9374 73.465C47.7784 73.8651 47.6782 74.2861 47.6399 74.715C47.8926 74.3706 48.0962 73.9929 48.2449 73.5925C48.4039 73.1966 48.5049 72.7798 48.5449 72.355C48.2915 72.6947 48.087 73.0684 47.9374 73.465ZM42.7625 67.39C42.3625 67.2299 41.9415 67.1288 41.5125 67.09C41.8538 67.3453 42.2301 67.5499 42.63 67.6975C43.03 67.857 43.451 67.9581 43.88 67.9975C43.5387 67.7422 43.1623 67.5376 42.7625 67.39ZM45.435 61.36C45.3417 61.1553 45.2374 60.9558 45.1225 60.7625L44.805 60.5C44.8801 60.8438 44.9907 61.179 45.1349 61.5C45.301 61.8932 45.5242 62.2596 45.7975 62.5875C45.7362 62.163 45.6141 61.7496 45.435 61.36ZM54.9625 71.5425C54.925 71.4625 54.8874 71.3825 54.8474 71.305L54.3474 70.6975C54.4189 71.0346 54.5262 71.3632 54.6674 71.6775C54.8364 72.0697 55.0603 72.4359 55.3324 72.765C55.2684 72.3419 55.1438 71.9301 54.9625 71.5425ZM50.1624 65.9025C50.0924 65.9525 50.0225 66.0075 49.955 66.065C50.0583 66.0528 50.1609 66.0353 50.2625 66.0125L50.1624 65.9025Z" fill="white"/>
<path d="M55.2851 72.71C54.7851 72.73 50.4551 73.5225 49.5176 73.71C48.5801 73.8975 44.7351 74.6525 43.7826 74.9325C43.7752 74.9346 43.7686 74.939 43.764 74.9451C43.7594 74.9512 43.7568 74.9586 43.7568 74.9663C43.7568 74.9739 43.7594 74.9814 43.764 74.9875C43.7686 74.9936 43.7752 74.998 43.7826 75C44.7676 74.905 48.6451 74.16 49.6051 73.985C50.5651 73.81 54.8376 72.93 55.2926 72.7675C55.3426 72.75 55.3201 72.71 55.2851 72.71Z" fill="#263238"/>
<path d="M51.8502 75.9525L43.8502 77.54C43.8502 77.54 40.7102 69.79 39.9002 64.765C39.3027 61.0625 39.4877 58.515 41.3777 58.6675L51.8502 75.9525Z" fill="#263238"/>
<path d="M53.5001 100.39L18.3176 102.25C18.3176 102.25 21.2976 72.2725 34.3176 59.525C35.9251 57.95 40.2001 57.2225 42.3851 58.9275C43.5501 59.8375 45.6626 63.9075 46.7826 68.0625C47.9026 72.2175 53.5951 100.25 53.5001 100.39Z" fill="#FF725E"/>
<path d="M38.28 62.3275C38.1233 62.724 38.0231 63.1406 37.9825 63.565C38.2378 63.2229 38.4424 62.8456 38.59 62.445C38.7478 62.0487 38.8488 61.6321 38.89 61.2075C38.6353 61.5505 38.43 61.9275 38.28 62.3275ZM34.2325 78.3725C34.0714 78.7721 33.9703 79.1933 33.9325 79.6225C34.4352 78.9294 34.7473 78.1165 34.8375 77.265C34.5852 77.6042 34.3816 77.977 34.2325 78.3725ZM31.66 95.395C31.5013 95.7902 31.4003 96.2061 31.36 96.63C31.8627 95.9369 32.1748 95.124 32.265 94.2725C32.0108 94.6159 31.8071 94.9939 31.66 95.395ZM47.9825 73.355L47.9375 73.465C47.7784 73.8651 47.6782 74.2862 47.64 74.715C47.825 74.4705 47.981 74.2054 48.105 73.925C48.0625 73.7225 48.0225 73.5375 47.9825 73.355ZM41.31 93.6325C41.1494 94.0324 41.0475 94.4534 41.0075 94.8825C41.2635 94.5413 41.469 94.1649 41.6175 93.765C41.7745 93.3686 41.8746 92.952 41.915 92.5275C41.6629 92.8659 41.4593 93.2379 41.31 93.6325ZM27.0475 72.1575C26.8891 72.5535 26.7889 72.9703 26.75 73.395C27.0037 73.0522 27.2074 72.6751 27.355 72.275C27.5151 71.8751 27.6161 71.454 27.655 71.025C27.3986 71.371 27.194 71.7525 27.0475 72.1575ZM42.7625 67.39C42.3626 67.2299 41.9415 67.1288 41.5125 67.09C41.8538 67.3453 42.2302 67.5499 42.63 67.6975C43.0301 67.8571 43.4511 67.9581 43.88 67.9975C43.5387 67.7423 43.1623 67.5376 42.7625 67.39ZM46.28 80.7975C45.8846 80.64 45.4687 80.5398 45.045 80.5C45.3858 80.7555 45.7623 80.9593 46.1625 81.105C46.5587 81.2636 46.9753 81.3654 47.4 81.4075C47.0582 81.1509 46.6809 80.9454 46.28 80.7975ZM48.1225 96.75C47.7226 96.5899 47.3015 96.4888 46.8725 96.45C47.5649 96.9526 48.3768 97.2655 49.2275 97.3575C48.8895 97.1042 48.5175 96.8997 48.1225 96.75ZM21.7925 95.8775C21.3926 95.7174 20.9715 95.6164 20.5425 95.5775C21.2361 96.0797 22.0486 96.3925 22.9 96.485C22.5613 96.2313 22.1885 96.0267 21.7925 95.8775ZM31.1675 85.1625C30.7678 85.0013 30.3467 84.8994 29.9175 84.86C30.2596 85.1161 30.6368 85.3215 31.0375 85.47C31.4379 85.6281 31.8588 85.7283 32.2875 85.7675C31.9447 85.5138 31.5676 85.3101 31.1675 85.1625ZM34.535 69.975C34.366 69.5828 34.1421 69.2166 33.87 68.8875C34.0041 69.7335 34.3585 70.5293 34.8975 71.195C34.8343 70.7734 34.7122 70.3627 34.535 69.975ZM40.6175 83.475C40.4486 83.0833 40.2256 82.7172 39.955 82.3875C40.0167 82.8095 40.1388 83.2203 40.3175 83.6075C40.4856 83.9996 40.7087 84.3658 40.98 84.695C40.9178 84.2724 40.7957 83.8608 40.6175 83.4725V83.475ZM26.295 90.8125C26.1265 90.4208 25.9025 90.0554 25.63 89.7275C25.6932 90.1491 25.8152 90.5598 25.9925 90.9475C26.1604 91.3395 26.3844 91.705 26.6575 92.0325C26.5957 91.6098 26.4736 91.1981 26.295 90.81V90.8125ZM28.675 101.5C28.5071 101.108 28.284 100.742 28.0125 100.413C28.0726 100.835 28.1948 101.246 28.375 101.633C28.39 101.668 28.4075 101.7 28.4225 101.735L28.765 101.718L28.675 101.5ZM47.33 88.655C46.9377 88.8217 46.5714 89.044 46.2425 89.315C47.0877 89.1813 47.8832 88.8288 48.55 88.2925C48.1281 88.3475 47.7168 88.4654 47.33 88.6425V88.655ZM36.925 99.5C36.5329 99.6682 36.1667 99.8913 35.8375 100.163C36.2593 100.1 36.67 99.978 37.0575 99.8C37.4503 99.6322 37.8166 99.4082 38.145 99.135C37.7227 99.1964 37.3116 99.3194 36.925 99.5ZM19.925 101.975C19.775 102.045 19.625 102.118 19.48 102.198L20.3075 102.155C20.609 102.01 20.8905 101.827 21.145 101.61C20.7205 101.673 20.3072 101.795 19.9175 101.975H19.925ZM26.4575 79.1725C26.0657 79.3412 25.6996 79.5642 25.37 79.835C26.2159 79.6996 27.012 79.3464 27.68 78.81C27.2547 78.871 26.8404 78.9931 26.45 79.1725H26.4575ZM36.02 89.7925C35.628 89.9619 35.2619 90.1858 34.9325 90.4575C35.3555 90.397 35.7674 90.2749 36.155 90.095C36.5473 89.9264 36.9135 89.7024 37.2425 89.43C36.8174 89.4922 36.4033 89.6142 36.0125 89.7925H36.02ZM40.27 73.425C39.8779 73.5932 39.5117 73.8163 39.1825 74.0875C40.0284 73.9521 40.8245 73.5989 41.4925 73.0625C41.0629 73.1223 40.6443 73.2444 40.25 73.425H40.27ZM30.8575 63.8625C30.77 63.9025 30.685 63.9425 30.6075 63.9875C30.51 64.1275 30.4125 64.27 30.3175 64.4125C30.5499 64.3434 30.7779 64.2599 31 64.1625C31.3916 63.9934 31.7576 63.7704 32.0875 63.5C31.6588 63.5601 31.241 63.6822 30.8475 63.8625H30.8575Z" fill="white"/>
<path d="M29.5801 63.83C19.6926 75.4825 12.9351 93.8975 16.4451 96.6025C20.4276 99.675 35.1401 102.203 40.9851 102.71C42.7976 102.868 43.0726 87.85 41.1276 87.895C38.7701 87.95 29.9551 86.16 29.7201 86.1575C29.2201 86.1575 34.0176 70.9075 35.4051 64.9375C37.3376 56.615 33.2926 59.455 29.5801 63.83Z" fill="#D3766A"/>
<path d="M60.275 90.25C60.695 91.75 59.3425 92.635 59.3425 92.635C59.9152 93.1587 60.2866 93.8663 60.3925 94.635C60.515 96 58.4275 96.79 58.4275 96.79C58.9082 97.4588 59.1765 98.2567 59.1975 99.08C59.1825 100.398 57.1975 101.495 57.1975 101.495C57.3004 102.353 57.091 103.219 56.6075 103.935C55.2375 105.798 51.7175 105.533 49.48 105.385C47.2425 105.238 40.43 102.45 39.1975 102.09L40.6025 88C40.6025 88 50.8275 85.8 53.435 86.345C55.6325 86.81 59.8025 88.57 60.275 90.25Z" fill="#D3766A"/>
<path d="M59.3001 92.5725C57.0826 91.525 54.6751 91.1875 52.3001 90.715C52.2476 90.715 52.2326 90.79 52.2851 90.8C54.6626 91.24 56.9201 92.1475 59.2851 92.685C59.2974 92.6826 59.3085 92.6763 59.3171 92.6672C59.3256 92.6581 59.3311 92.6465 59.3328 92.6341C59.3344 92.6217 59.3322 92.6091 59.3263 92.5981C59.3204 92.5871 59.3113 92.5781 59.3001 92.5725Z" fill="#263238"/>
<path d="M58.3926 96.61C57.8634 96.4182 57.3111 96.2971 56.7501 96.25C56.1626 96.165 55.5751 96.0875 54.9851 96.0225C53.8051 95.8875 52.6226 95.7834 51.4376 95.71C51.3851 95.71 51.3676 95.7875 51.4226 95.7925C52.5976 95.9275 53.7726 96.08 54.9401 96.265C55.5251 96.3584 56.1085 96.455 56.6901 96.555C57.2341 96.6857 57.7908 96.7562 58.3501 96.765C58.3678 96.7639 58.3847 96.7573 58.3984 96.7461C58.4121 96.7349 58.422 96.7197 58.4266 96.7027C58.4313 96.6856 58.4306 96.6675 58.4245 96.6509C58.4184 96.6343 58.4072 96.62 58.3926 96.61Z" fill="#263238"/>
<path d="M57.1401 101.5C56.7051 101.288 56.1251 101.303 55.6526 101.25C55.1126 101.2 54.5751 101.148 54.0351 101.093C52.9601 100.983 51.8851 100.87 50.8126 100.723C50.7601 100.723 50.7426 100.798 50.7976 100.805C51.8851 100.96 52.9701 101.133 54.0601 101.278C54.5951 101.351 55.1301 101.42 55.6651 101.485C56.1226 101.543 56.6851 101.665 57.1376 101.548C57.1414 101.545 57.1446 101.541 57.1468 101.537C57.149 101.533 57.1503 101.529 57.1506 101.524C57.1508 101.52 57.15 101.515 57.1482 101.511C57.1464 101.507 57.1436 101.503 57.1401 101.5Z" fill="#263238"/>
<path d="M33.0801 78.3851L19.0801 76.3476C19.0801 76.3476 28.2051 63.7576 31.9326 60.8126C36.1276 57.4976 36.9051 60.3676 36.3576 65.4201C35.8101 70.4726 33.0801 78.3851 33.0801 78.3851Z" fill="#FF725E"/>
<path d="M30.8477 63.8625C30.4516 64.0288 30.0819 64.252 29.7502 64.525C30.5961 64.3896 31.3922 64.0364 32.0602 63.5C31.6408 63.5626 31.2326 63.6847 30.8477 63.8625ZM34.5352 69.975C34.3662 69.5828 34.1423 69.2166 33.8702 68.8875C34.0043 69.7335 34.3587 70.5293 34.8977 71.195C34.8345 70.7734 34.7124 70.3627 34.5352 69.975ZM20.6852 74.185C20.6177 74.2775 20.5502 74.37 20.4827 74.4575H20.5002C20.9003 74.6172 21.3212 74.7191 21.7502 74.76C21.4237 74.5196 21.0653 74.326 20.6852 74.185ZM27.0477 72.1575C26.8893 72.5535 26.789 72.9703 26.7502 73.395C27.0039 73.0522 27.2076 72.6751 27.3552 72.275C27.5153 71.8751 27.6163 71.454 27.6552 71.025C27.3988 71.371 27.1941 71.7525 27.0477 72.1575Z" fill="white"/>
<path d="M21.4201 74.0475C21.9201 74.0475 26.2851 74.61 27.2301 74.755C28.1751 74.9 32.0551 75.4475 33.0226 75.6775C33.0319 75.6775 33.0408 75.6812 33.0474 75.6878C33.054 75.6944 33.0576 75.7033 33.0576 75.7125C33.0576 75.7218 33.054 75.7307 33.0474 75.7373C33.0408 75.7439 33.0319 75.7475 33.0226 75.7475C32.0351 75.7025 28.1226 75.16 27.1551 75.0325C26.1876 74.905 21.8751 74.25 21.4051 74.1125C21.3651 74.1 21.3851 74.0475 21.4201 74.0475Z" fill="#263238"/>
<path d="M31.9726 78.115C32.3976 78.145 33.0601 78.2175 33.0601 78.2175C33.4776 76.2875 34.1026 74.385 34.6051 72.4675C35.1076 70.55 35.6876 68.6 36.2226 66.6625C36.2243 66.6566 36.2282 66.6515 36.2336 66.6485C36.239 66.6454 36.2454 66.6446 36.2514 66.6463C36.2573 66.648 36.2624 66.6519 36.2654 66.6573C36.2685 66.6627 36.2693 66.6691 36.2676 66.6751C36.0343 67.7901 35.7959 68.9025 35.5526 70.0125L35.7176 69.6126C35.9126 69.1401 36.1201 68.6725 36.3001 68.1925C36.3024 68.1839 36.3081 68.1766 36.3158 68.1721C36.3236 68.1677 36.3327 68.1665 36.3414 68.1688C36.35 68.1711 36.3573 68.1768 36.3618 68.1845C36.3662 68.1922 36.3674 68.2014 36.3651 68.21C36.2287 68.709 36.0617 69.1991 35.8651 69.6775C35.7226 70.0125 35.5576 70.3351 35.3901 70.6576C35.2451 71.2926 35.1026 71.93 34.9401 72.5626C34.4401 74.5051 34.0401 76.6976 33.3951 78.5951C33.3951 78.5951 32.4176 78.3675 31.9376 78.2C31.9292 78.1937 31.9232 78.1848 31.9204 78.1747C31.9176 78.1645 31.9183 78.1538 31.9223 78.144C31.9263 78.1343 31.9334 78.1262 31.9425 78.121C31.9516 78.1157 31.9622 78.1136 31.9726 78.115Z" fill="#263238"/>
<path d="M42.3501 64.9425C40.4601 65.585 36.8501 62.9425 35.3101 60.675C35.2076 60.5175 35.2926 58.7625 35.2951 56.6225C35.2951 55.325 35.2601 53.8725 35.1326 52.5625C35.1051 52.2925 43.5851 53.7775 43.5851 53.7775C43.5851 53.7775 43.0376 56.615 43.2701 58.91C43.2901 59.0914 43.3269 59.2705 43.3801 59.445C43.3801 59.4675 43.3951 59.4975 43.4001 59.5325C43.6651 60.5425 44.1801 64.32 42.3501 64.9425Z" fill="#D3766A"/>
<path d="M42.5552 59.6575C42.839 59.6397 43.1209 59.5979 43.3977 59.5325C43.393 59.5021 43.3863 59.4721 43.3777 59.4425C43.326 59.2677 43.29 59.0887 43.2702 58.9075C43.0377 56.615 43.5827 53.7775 43.5827 53.7775C43.5827 53.7775 36.7027 52.57 35.3577 52.5275C35.7502 54.0275 37.6752 60.0175 42.5552 59.6575Z" fill="#263238"/>
<path d="M32.795 42.265C32.1325 45.265 34.3525 53.6175 36.5875 55.3425C39.8375 57.8425 44.8 57.71 46.8375 53.8925C48.815 50.19 45.73 39.36 43.2625 37.8275C39.6325 35.5725 33.775 37.83 32.795 42.265Z" fill="#D3766A"/>
<path d="M47.4351 49.2075H47.4151C47.5776 51.31 47.2526 53.425 45.8776 55.0925C45.5364 55.5234 45.1196 55.8885 44.6476 56.17C44.644 56.1736 44.6417 56.1782 44.641 56.1832C44.6404 56.1882 44.6415 56.1933 44.6441 56.1976C44.6467 56.2019 44.6506 56.2053 44.6554 56.2071C44.6601 56.2089 44.6653 56.209 44.6701 56.2075C45.0977 55.9749 45.4949 55.6902 45.8526 55.36C46.2052 55.0182 46.5082 54.6286 46.7526 54.2025C47.3033 53.2575 47.606 52.1885 47.6326 51.095C47.6303 50.4608 47.5641 49.8285 47.4351 49.2075Z" fill="#263238"/>
<path d="M41.525 46.81C41.525 46.7875 41.4875 46.8475 41.495 46.87C41.6475 47.4275 41.745 48.095 41.2675 48.405C41.2525 48.405 41.2675 48.4425 41.28 48.435C41.88 48.1975 41.7625 47.3125 41.525 46.81Z" fill="#263238"/>
<path d="M40.8802 46.3425C39.9552 46.495 40.3277 48.33 41.1827 48.1875C42.0377 48.045 41.6527 46.215 40.8802 46.3425Z" fill="#263238"/>
<path d="M44.7949 46.1C44.7949 46.0775 44.8449 46.1175 44.8499 46.14C44.9424 46.7125 45.1449 47.3525 45.6974 47.44C45.7149 47.44 45.7174 47.4725 45.6974 47.475C45.0524 47.5 44.7924 46.655 44.7949 46.1Z" fill="#263238"/>
<path d="M45.1876 45.405C46.0876 45.155 46.5201 46.9775 45.6876 47.2075C44.8551 47.4375 44.4326 45.6125 45.1876 45.405Z" fill="#263238"/>
<path d="M41.395 45.4125C41.1808 45.5527 40.9597 45.6821 40.7325 45.8C40.518 45.9677 40.2547 46.0607 39.9825 46.065C39.8962 46.0493 39.8175 46.0055 39.7587 45.9404C39.6999 45.8752 39.6643 45.7925 39.6575 45.705C39.6575 45.33 39.9075 45.075 40.2225 44.8875C40.5196 44.6876 40.8806 44.6056 41.235 44.6575C41.3148 44.6746 41.388 44.7144 41.4457 44.7722C41.5034 44.83 41.5431 44.9033 41.56 44.9831C41.5769 45.063 41.5703 45.1461 41.541 45.2223C41.5118 45.2985 41.461 45.3646 41.395 45.4125Z" fill="#263238"/>
<path d="M45.6176 43.7C45.3612 43.6997 45.105 43.6855 44.8501 43.6575C44.5777 43.6798 44.3054 43.6122 44.0751 43.465C44.014 43.406 43.9736 43.3289 43.9601 43.245C43.9466 43.1612 43.9606 43.0752 44.0001 43C44.1976 42.6825 44.5651 42.6175 44.9201 42.625C45.2782 42.6222 45.6247 42.7522 45.8926 42.99C45.946 43.0484 45.982 43.1206 45.9966 43.1984C46.0112 43.2762 46.0038 43.3565 45.9752 43.4303C45.9466 43.5041 45.898 43.5684 45.8348 43.6161C45.7716 43.6637 45.6964 43.6928 45.6176 43.7Z" fill="#263238"/>
<path d="M42.3551 51.345C43.0151 50.91 43.9576 50.8075 44.5576 50.7575C44.6226 50.735 44.6551 50.595 44.6526 50.53C44.6526 50.51 44.3676 49.34 44.3676 49.34C44.5401 49.385 45.4201 49.59 45.3676 49.355C44.8676 47.5125 44.3076 45.4625 43.4176 43.735C43.4129 43.7217 43.4032 43.7109 43.3905 43.7048C43.3779 43.6987 43.3633 43.6979 43.3501 43.7025C43.3368 43.7071 43.3259 43.7169 43.3198 43.7295C43.3137 43.7422 43.3129 43.7567 43.3176 43.77C43.7326 45.5625 44.4551 47.27 44.9001 49.06C44.5858 48.9856 44.2625 48.957 43.9401 48.975C43.8826 49.005 44.3101 50.225 44.3301 50.4175C44.3301 50.4175 43.1126 50.315 42.3026 51.105C42.0826 51.305 42.0401 51.5525 42.3551 51.345Z" fill="#263238"/>
<path d="M41.2275 52.9225C41.39 53.0225 41.565 53.1725 41.7725 53.15C41.9806 53.101 42.1758 53.0081 42.345 52.8775C42.3486 52.8747 42.3531 52.8733 42.3576 52.8734C42.3622 52.8734 42.3666 52.8751 42.3701 52.878C42.3736 52.8809 42.376 52.8849 42.3769 52.8894C42.3778 52.8938 42.3771 52.8985 42.375 52.9025C42.3181 53.0299 42.2279 53.1395 42.114 53.22C42.0001 53.3005 41.8666 53.3489 41.7275 53.36C41.6067 53.3545 41.4903 53.3133 41.3929 53.2417C41.2954 53.17 41.2214 53.0712 41.18 52.9575C41.165 52.9275 41.205 52.9075 41.2275 52.9225Z" fill="#263238"/>
<path d="M43.5424 50.4725C43.0099 50.5775 41.3199 51.2625 41.7399 52.0475C41.9224 52.3925 42.4899 52.1875 42.9249 51.685C43.2038 51.3224 43.4132 50.9113 43.5424 50.4725Z" fill="#263238"/>
<path d="M42.7075 51.9075C42.3225 52.24 41.8925 52.335 41.7375 52.0475C41.6871 51.9513 41.6661 51.8424 41.6772 51.7344C41.6883 51.6263 41.7311 51.5239 41.8 51.44C42.125 51.385 42.8175 51.33 42.7075 51.9075Z" fill="#FF9ABB"/>
<path d="M45.6776 40.655C43.1301 43.45 38.2351 41.2775 38.2351 41.2775C38.1326 42.0011 37.799 42.6721 37.2841 43.1907C36.7692 43.7092 36.1004 44.0475 35.3776 44.155C35.3776 44.155 35.9876 49.4375 34.6276 49.745C32.5576 50.2175 30.2726 43.3575 30.6001 41.8275C30.9276 40.2975 32.6001 39.5325 32.6001 39.5325C32.6001 39.5325 32.4776 38.435 33.5251 37.16C34.6801 35.7475 39.8901 36.0575 39.8901 36.0575C40.0146 35.3416 40.3057 34.665 40.7401 34.0825C40.8435 33.9386 40.9751 33.8171 41.1268 33.7255C41.2785 33.6339 41.4472 33.574 41.6227 33.5494C41.7982 33.5249 41.9769 33.5362 42.1479 33.5827C42.3189 33.6292 42.4787 33.71 42.6176 33.82C42.4478 34.2599 42.3803 34.7327 42.4201 35.2025C42.5301 36.765 43.7601 36.475 43.4201 35.1125C43.3144 34.5983 43.0268 34.1394 42.6101 33.82C43.0076 32.785 43.9301 32.26 44.6426 32.5975C45.9451 33.2075 47.7976 38.3325 45.6776 40.655Z" fill="#263238"/>
<path d="M35.1825 49.205C35.1825 49.205 32.78 46.8675 31.6825 47.775C30.585 48.6825 32.755 52.3225 34.295 52.5825C34.4901 52.628 34.6924 52.6339 34.8899 52.5999C35.0874 52.5659 35.2761 52.4927 35.4448 52.3846C35.6135 52.2765 35.7589 52.1356 35.8723 51.9704C35.9857 51.8051 36.0648 51.6189 36.105 51.4225L35.1825 49.205Z" fill="#D3766A"/>
<path d="M32.3302 48.8025C32.3077 48.8025 32.3102 48.8375 32.3302 48.8425C33.4177 49.0575 34.1277 49.8925 34.6827 50.79C34.3127 50.4725 33.8652 50.3475 33.4327 50.79C33.4102 50.8125 33.4327 50.85 33.4702 50.8375C33.6366 50.7471 33.827 50.7106 34.015 50.733C34.2031 50.7554 34.3796 50.8356 34.5202 50.9625C34.7539 51.1763 34.9643 51.4143 35.1477 51.6725C35.2127 51.755 35.3652 51.6725 35.3127 51.5775C35.3076 51.5706 35.3034 51.563 35.3002 51.555C35.0777 50.275 33.7352 48.6675 32.3302 48.8025Z" fill="#263238"/>
<path d="M34.2625 61.3375C35.3463 63.0434 36.8559 64.4376 38.6425 65.3825C39.509 65.8632 40.4794 66.1257 41.47 66.1475C41.9873 66.1639 42.4974 66.0226 42.9325 65.7425C43.3306 65.4209 43.6382 65.0014 43.825 64.525C44.0525 63.9882 44.1974 63.4201 44.255 62.84C44.3297 62.187 44.3581 61.5295 44.34 60.8725C44.34 60.8475 44.3775 60.85 44.3775 60.8725C44.395 61.495 44.465 62.1225 44.4375 62.7375C44.4253 63.2869 44.3412 63.8324 44.1875 64.36C44.0377 64.8633 43.782 65.3287 43.4375 65.725C43.0686 66.1181 42.5729 66.3686 42.0375 66.4325C40.9913 66.5538 39.9324 66.3679 38.99 65.8975C38.0446 65.4594 37.1733 64.8766 36.4075 64.17C35.5296 63.3595 34.7899 62.4113 34.2175 61.3625C34.1875 61.3275 34.25 61.3025 34.2625 61.3375Z" fill="#263238"/>
<path d="M51.7201 91.1C53.5776 94.71 58.4251 92.08 59.4701 89.4475C61.9426 83.265 62.7026 70.265 62.0276 64.2825C61.8101 62.3575 49.5101 64.1475 49.0476 66.165C48.5726 68.2775 47.9526 83.7725 51.7201 91.1Z" fill="#D3766A"/>
<path d="M61.9227 65.2C61.9227 65.2 62.4227 61.3025 62.7152 57.875C62.8752 55.9625 62.4652 52.0625 61.9377 50.605C61.1527 48.4225 56.4752 39.7975 54.3602 40.8875C52.4452 41.8725 57.4052 48.7725 57.4052 48.7725C57.4052 48.7725 53.0152 41.3675 50.9277 42.98C48.8402 44.5925 55.4802 51.64 55.4802 51.64C55.4802 51.64 50.8002 44.14 48.9102 46.14C47.4827 47.6525 53.1377 54.39 53.1377 54.39C53.1377 54.39 49.0702 47.965 47.5327 49.4575C45.8377 51.1075 50.6652 57.6425 50.6652 57.6425C47.4152 62.0925 46.7477 64.875 49.3427 67.54C49.7627 67.9525 61.9227 65.2 61.9227 65.2Z" fill="#D3766A"/>
<path d="M59.0851 51.235C58.6026 50.3475 58.1176 49.445 57.5576 48.6025C56.9976 47.76 56.4051 46.9375 55.7676 46.15C54.2026 44.2225 52.9226 43.26 52.9951 43.3275C54.7126 44.9375 56.7701 47.9225 57.3301 48.765C57.8901 49.6075 58.4926 50.4175 59.0551 51.265C59.0701 51.28 59.0976 51.25 59.0851 51.235Z" fill="#263238"/>
<path d="M56.0827 53.3175C55.4152 52.21 54.7927 51.0875 54.0827 50.0075C53.3727 48.9275 52.6002 47.98 51.8152 46.9575C51.7552 46.88 51.7327 46.9375 51.7902 47.02C52.5402 48.07 53.1402 49.1 53.8702 50.16C54.6002 51.22 55.3702 52.2525 56.0652 53.335C56.0677 53.3525 56.0927 53.335 56.0827 53.3175Z" fill="#263238"/>
<path d="M53.8251 55.5676C52.8456 53.808 51.6905 52.1521 50.3776 50.6251C50.3151 50.5501 50.2951 50.6251 50.3551 50.7101C51.5326 52.2926 52.4601 53.6426 53.7651 55.6026C53.7851 55.6326 53.8451 55.6051 53.8251 55.5676Z" fill="#263238"/>
<path d="M50.6975 45.0575C50.5685 44.6993 50.4968 44.3231 50.485 43.9426C50.4949 43.5932 50.6277 43.2586 50.86 42.9976C50.875 42.9801 50.9025 42.9975 50.885 43.0225C50.5875 43.2725 50.5825 43.7576 50.635 44.11C50.6955 44.455 50.7867 44.7938 50.9075 45.1226C51.0314 45.4651 51.1775 45.7991 51.345 46.1226C51.5032 46.445 51.6785 46.7587 51.87 47.0625C51.8718 47.0651 51.8728 47.0682 51.8728 47.0713C51.8728 47.0744 51.8718 47.0775 51.87 47.0801C51.8683 47.0817 51.8664 47.083 51.8643 47.0839C51.8621 47.0848 51.8598 47.0853 51.8575 47.0853C51.8551 47.0853 51.8528 47.0848 51.8507 47.0839C51.8485 47.083 51.8466 47.0817 51.845 47.0801C51.4857 46.6549 51.0377 46.3136 50.5325 46.0801C50.3026 45.9527 50.0452 45.8832 49.7825 45.8775C49.5395 45.8922 49.3102 45.9951 49.1376 46.1667C48.965 46.3384 48.861 46.5671 48.845 46.8101C48.847 47.0539 48.8936 47.2954 48.9825 47.5225C49.1552 48.05 49.3572 48.5675 49.5875 49.0725C49.715 49.3525 49.8375 49.6275 49.995 49.8975C50.1525 50.1675 50.31 50.4276 50.4375 50.7051C50.4375 50.7226 50.3825 50.7376 50.37 50.7276C50.2 50.5851 49.005 49.4275 48.2875 49.3675C48.1037 49.3422 47.9165 49.3752 47.7524 49.4617C47.5883 49.5483 47.4554 49.6841 47.3725 49.85C47.2057 50.2093 47.1626 50.6137 47.25 51C47.3987 51.6639 47.5968 52.3157 47.8425 52.9501C47.8425 52.9701 47.8175 52.9801 47.81 52.9501C47.6225 52.4876 47.215 51.4951 47.0875 51.0126C46.9612 50.6099 46.9834 50.1753 47.15 49.7875C47.229 49.6121 47.3529 49.4605 47.5091 49.3482C47.6654 49.2358 47.8485 49.1666 48.04 49.1475C48.4387 49.1614 48.8221 49.3044 49.1325 49.555C49.5156 49.851 49.8804 50.1699 50.225 50.51C50.1075 50.34 49.595 49.4475 49.46 49.175C49.1844 48.6304 48.9488 48.0664 48.755 47.4875C48.5825 46.9875 48.5375 46.4301 48.9425 46.0126C49.1273 45.8377 49.3611 45.7235 49.6126 45.6851C49.8641 45.6466 50.1214 45.6859 50.35 45.7975C50.7219 45.9559 51.0611 46.1823 51.35 46.465C51.2775 46.3625 51.2075 46.255 51.145 46.145C50.9612 45.7978 50.8114 45.4336 50.6975 45.0575Z" fill="#263238"/>
<path d="M49.8926 85.8225C50.1201 86.4875 50.3351 87.1525 50.5826 87.8075C50.8301 88.4625 51.0676 89.1175 51.3326 89.7575C51.5865 90.3905 51.9084 90.994 52.2926 91.5575C52.3379 91.6236 52.3881 91.6863 52.4426 91.745L52.6026 91.905C52.7296 92.0082 52.8641 92.1018 53.0051 92.185C53.284 92.351 53.5867 92.4732 53.9026 92.5475C54.2196 92.62 54.5456 92.6452 54.8701 92.6225C55.1982 92.5931 55.5215 92.5234 55.8326 92.415C56.47 92.1848 57.0673 91.8558 57.6026 91.44C57.8826 91.2425 58.1376 91.005 58.3976 90.7825C58.6468 90.5522 58.8675 90.2928 59.0551 90.01C59.4455 89.4334 59.7449 88.8002 59.9426 88.1325C59.8341 88.8333 59.6049 89.51 59.2651 90.1325C59.0886 90.4488 58.8745 90.7426 58.6276 91.0075C58.3822 91.269 58.1226 91.5169 57.8501 91.75C57.2999 92.2248 56.6725 92.6019 55.9951 92.865C55.6475 92.9949 55.2844 93.079 54.9151 93.115C54.5393 93.145 54.1611 93.1197 53.7926 93.04C53.4276 92.9494 53.0785 92.8035 52.7576 92.6075C52.5968 92.5103 52.4439 92.4008 52.3001 92.28L52.0901 92.07C52.0273 91.9983 51.9696 91.9223 51.9176 91.8425C51.5248 91.2383 51.209 90.5875 50.9776 89.905C50.5027 88.5768 50.1397 87.2112 49.8926 85.8225Z" fill="#263238"/>
<path d="M50.2476 33.185L53.2501 28.88L54.7276 30.385L57.4376 27.14L58.9851 28.7625L54.5926 31.59L53.4151 30.1225L50.2476 33.185Z" fill="#455A64"/>
<path d="M49.29 35.58L53.4325 34.655L53.435 35.9775L56.445 36.18L56.475 37.595L52.435 36.865L52.7525 35.57L49.29 35.58Z" fill="#455A64"/>
<path d="M47.9 33.185L47.595 29.1975L49.015 29.37L48.985 26.12L50.5675 25.95L49.67 30.16L48.4075 29.9225L47.9 33.185Z" fill="#455A64"/>
<path d="M12.9226 110.328L25.3151 110.265L37.7101 110.245L62.5001 110.203L87.2901 110.245L99.6851 110.265L112.078 110.328L99.6851 110.388L87.2901 110.41L62.5001 110.453L37.7101 110.41L25.3151 110.388L12.9226 110.328Z" fill="#263238"/>
<path d="M12.6726 28.25C12.6711 29.8943 13.1268 31.5066 13.9887 32.9068C14.8507 34.3071 16.085 35.44 17.5538 36.1792C19.0225 36.9184 20.6679 37.2346 22.306 37.0926C23.9441 36.9506 25.5105 36.3559 26.8301 35.375L31.1776 36.485L29.3676 32.4375C30.0041 31.2483 30.3611 29.9296 30.4114 28.5817C30.4618 27.2338 30.2041 25.8921 29.658 24.6587C29.1119 23.4254 28.2918 22.3327 27.2601 21.4639C26.2283 20.5951 25.012 19.9729 23.7037 19.6448C22.3953 19.3166 21.0294 19.2911 19.7097 19.5701C18.3901 19.8491 17.1514 20.4254 16.0878 21.255C15.0243 22.0847 14.1639 23.1459 13.5721 24.358C12.9803 25.5701 12.6727 26.9012 12.6726 28.25Z" fill="white"/>
<path d="M12.6726 28.25C12.6811 29.8876 13.1404 31.4912 14.0001 32.885C14.2159 33.2321 14.4521 33.566 14.7076 33.885C14.9735 34.1939 15.2574 34.4869 15.5576 34.7625C15.7047 34.903 15.8591 35.0357 16.0201 35.16L16.5201 35.525C16.6851 35.645 16.8676 35.7375 17.0401 35.8475L17.2901 36.0025C17.3776 36.0525 17.4726 36.0925 17.5626 36.1375L18.1151 36.3875L18.6901 36.5925C18.8804 36.6643 19.076 36.7211 19.2751 36.7625C19.4726 36.8075 19.6676 36.8725 19.8676 36.9C20.2675 36.9716 20.6717 37.0158 21.0776 37.0325C21.4824 37.0592 21.8887 37.0534 22.2926 37.015C23.1008 36.9395 23.8949 36.7536 24.6526 36.4625C25.4074 36.167 26.1188 35.771 26.7676 35.285L26.8001 35.26H26.8426L31.1951 36.35L31.0676 36.5025L29.2501 32.475L29.2251 32.4225L29.2551 32.37C29.8811 31.1961 30.2325 29.8953 30.2827 28.5659C30.333 27.2364 30.0808 25.9128 29.5451 24.695C29.0007 23.48 28.1969 22.3988 27.1901 21.5275C26.1733 20.6616 24.9718 20.0398 23.6776 19.71C22.3801 19.3758 21.0238 19.3391 19.7101 19.6025C18.3961 19.8813 17.161 20.4501 16.0951 21.2675C15.0332 22.0963 14.1733 23.1554 13.5804 24.365C12.9875 25.5745 12.6771 26.903 12.6726 28.25ZM12.6726 28.25C12.6736 26.9014 12.9808 25.5706 13.5711 24.358C14.1614 23.1454 15.0193 22.0827 16.0801 21.25C17.1404 20.4057 18.3808 19.8168 19.7052 19.529C21.0296 19.2411 22.4025 19.262 23.7176 19.59C25.0396 19.9104 26.271 20.5286 27.3176 21.3975C28.3654 22.2727 29.1994 23.3755 29.7562 24.622C30.3129 25.8685 30.5776 27.2257 30.5301 28.59C30.4872 29.9572 30.125 31.2953 29.4726 32.4975V32.39L31.2726 36.4425L31.3651 36.65L31.1451 36.5925L26.8026 35.4625L26.8776 35.4475C25.5429 36.4306 23.9601 37.0211 22.3076 37.1525C21.8983 37.185 21.487 37.185 21.0776 37.1525C20.668 37.1322 20.2603 37.0829 19.8576 37.005C19.6526 36.975 19.4576 36.9075 19.2601 36.86C19.0594 36.8141 18.8623 36.7539 18.6701 36.68L18.0951 36.465C17.9101 36.38 17.7276 36.2875 17.5426 36.1975C17.4501 36.15 17.3576 36.11 17.2676 36.06L17.0176 35.8975C16.8476 35.7875 16.6651 35.69 16.5001 35.5675L16.0001 35.1975C15.8385 35.0721 15.6841 34.9378 15.5376 34.795C15.2361 34.518 14.9522 34.2225 14.6876 33.91C14.4325 33.5919 14.1978 33.2579 13.9851 32.91C13.1266 31.5073 12.6724 29.8946 12.6726 28.25Z" fill="#263238"/>
<path d="M20.3601 22.8925H22.4351L22.2951 30.5425H20.5001L20.3601 22.8925Z" fill="#FF725E"/>
<path d="M22.295 31.5H20.5V33.295H22.295V31.5Z" fill="#FF725E"/>
</svg>
