<svg width="135" height="90" viewBox="0 0 135 90" fill="none" xmlns="http://www.w3.org/2000/svg">
<path d="M123.563 32.1606C123.783 32.4047 123.952 32.6906 124.06 33.0014C124.168 33.3122 124.212 33.6415 124.189 33.9696C124.14 34.6265 123.941 35.2633 123.606 35.8308C122.994 36.9432 121.849 37.8468 120.751 38.4858C120.121 37.2258 120.51 35.6364 120.751 34.8444C121.142 33.5844 122.611 31.563 123.556 32.1606" fill="#EBEBEB"/>
<path d="M121.102 40.8798C121.172 40.5189 121.337 40.1829 121.578 39.906C121.82 39.6291 122.131 39.421 122.479 39.303C122.829 39.1902 123.197 39.148 123.563 39.1789C123.929 39.2098 124.285 39.3132 124.611 39.483C124.913 39.6342 125.212 39.8646 125.286 40.203C125.309 40.3599 125.291 40.5203 125.233 40.6679C125.175 40.8155 125.079 40.9451 124.954 41.0436C124.702 41.2383 124.403 41.3625 124.087 41.4036C123.007 41.5836 121.946 41.5692 121.102 40.8852" fill="#EBEBEB"/>
<path d="M118.374 43.938C118.411 43.8593 118.456 43.7841 118.507 43.713L118.892 43.1154C119.223 42.6186 119.68 41.9004 120.411 41.3154C121.023 40.8083 121.76 40.474 122.544 40.347C122.783 40.312 123.024 40.306 123.264 40.329C123.329 40.3342 123.393 40.3432 123.457 40.356C123.502 40.356 123.523 40.3686 123.523 40.3722C123.201 40.3528 122.878 40.3661 122.559 40.4118C121.789 40.5587 121.069 40.8987 120.467 41.4C119.747 41.967 119.29 42.6708 118.946 43.1586C118.775 43.4052 118.636 43.605 118.536 43.74C118.488 43.8112 118.434 43.8775 118.374 43.938Z" fill="#E0E0E0"/>
<path d="M122.58 33.804C122.572 33.8414 122.562 33.8782 122.548 33.9138L122.443 34.2216C122.35 34.4898 122.209 34.8732 122.033 35.3466C121.673 36.2934 121.171 37.5948 120.579 39.0186C119.986 40.4424 119.421 41.7186 118.998 42.6402C118.788 43.0992 118.613 43.4682 118.491 43.7202C118.431 43.839 118.383 43.9362 118.347 44.0118C118.331 44.0465 118.312 44.0796 118.291 44.1108C118.299 44.0741 118.312 44.0385 118.329 44.0046C118.363 43.9272 118.404 43.8246 118.458 43.704L118.939 42.6096C119.346 41.6844 119.902 40.4046 120.494 38.9808C121.086 37.557 121.603 36.261 121.972 35.3196L122.409 34.2054C122.46 34.083 122.499 33.9822 122.532 33.9048C122.544 33.8695 122.56 33.8357 122.58 33.804Z" fill="#E0E0E0"/>
<path d="M119.111 40.8924C119.284 40.1363 119.274 39.35 119.082 38.5987C118.889 37.8473 118.521 37.1527 118.006 36.5724C117.743 36.279 117.356 36.0018 116.986 36.135C116.615 36.2682 116.496 36.7308 116.489 37.125C116.488 37.9477 116.73 38.7523 117.186 39.4374C117.641 40.1226 118.289 40.6576 119.048 40.9752" fill="#EBEBEB"/>
<path d="M117.72 37.7478C117.784 37.8011 117.841 37.8615 117.891 37.9278C117.956 37.9973 118.016 38.0713 118.071 38.1492C118.138 38.241 118.22 38.3382 118.294 38.4606C118.38 38.5896 118.459 38.723 118.53 38.8602C118.615 39.0159 118.692 39.1763 118.759 39.3408C118.912 39.7195 119.022 40.1144 119.086 40.518C119.144 40.9222 119.155 41.3317 119.119 41.7384C119.102 41.9157 119.075 42.0918 119.038 42.2658C119.008 42.4181 118.969 42.5683 118.921 42.7158C118.885 42.838 118.842 42.9582 118.793 43.0758C118.759 43.166 118.72 43.2538 118.674 43.3386C118.642 43.4143 118.603 43.4867 118.557 43.5546C118.537 43.5546 118.705 43.236 118.859 42.696C118.902 42.5498 118.936 42.4014 118.962 42.2514C118.995 42.0794 119.02 41.9058 119.034 41.7312C119.066 41.3308 119.053 40.9282 118.996 40.5306C118.932 40.1348 118.827 39.7469 118.681 39.3732C118.609 39.2022 118.543 39.0402 118.463 38.8944C118.395 38.7574 118.32 38.6241 118.238 38.4948C117.936 38.016 117.695 37.7604 117.72 37.7478Z" fill="#E0E0E0"/>
<path d="M11.7109 20.9412C11.7109 20.9412 10.0549 21.4812 11.6605 25.0272C13.2661 28.5732 14.4127 30.3516 14.4127 30.3516C14.4127 30.3516 14.6881 31.1706 14.0041 31.2642C13.3201 31.3578 11.8441 31.05 11.4985 31.8654C11.1385 32.7096 11.7325 33.5502 12.9655 34.3224C14.1985 35.0946 16.8391 36.882 17.0767 37.044C17.3143 37.206 17.5339 37.584 17.0767 37.728C16.6195 37.872 13.2481 38.0592 13.4353 39.654C13.6225 41.2488 17.4133 42.84 17.8201 43.02C18.2269 43.2 18.3223 43.38 18.2773 43.6104C18.2323 43.8408 17.0929 43.7904 16.1353 43.8912C15.1777 43.992 14.0851 44.262 14.2705 45.1728C14.4559 46.0836 16.6501 48.0834 22.1689 48.8862L24.7501 49.0914L26.2585 46.9728C29.2141 42.2442 29.1061 39.2778 28.5319 38.547C27.9577 37.8162 27.0379 38.4714 26.3485 39.141C25.6591 39.8106 24.9517 40.707 24.7501 40.5936C24.5485 40.4802 24.4675 40.293 24.5935 39.8628C24.7195 39.4326 25.9633 35.5176 24.8671 34.344C23.7709 33.1704 21.4471 35.6184 21.0439 35.8776C20.6407 36.1368 20.4949 35.7156 20.5237 35.433C20.5525 35.1504 20.8945 31.977 21.1033 30.537C21.3121 29.097 21.0511 28.107 20.1781 27.837C19.3357 27.5706 18.6121 28.899 18.0991 29.3598C17.5861 29.8206 17.1397 29.0808 17.1397 29.0808C17.1397 29.0808 16.5259 27.0612 14.8555 23.5404C13.1851 20.0196 11.6749 20.9682 11.6749 20.9682" fill="#EBEBEB"/>
<path d="M24.8581 49.7016C23.6413 47.1096 21.5569 42.4692 19.7461 38.4948C17.9353 34.5204 16.2937 30.924 15.0895 28.3284L13.6621 25.254L13.2751 24.4188L13.1761 24.1992C13.1626 24.1735 13.1505 24.1471 13.1401 24.12C13.1401 24.12 13.1545 24.1434 13.1797 24.192L13.2859 24.408C13.3777 24.6006 13.5127 24.8796 13.6873 25.2378C14.0347 25.9578 14.5297 27.0036 15.1381 28.2978C16.3549 30.888 18.0055 34.4808 19.8181 38.4552C21.6307 42.4296 23.7061 47.0808 24.9103 49.68" fill="#E0E0E0"/>
<path d="M13.5542 32.3784C13.616 32.3924 13.6762 32.4123 13.7342 32.4378C13.8458 32.4792 14.0078 32.5458 14.2058 32.6286C14.6018 32.796 15.1436 33.0408 15.7376 33.3216L17.2532 34.0416L17.714 34.2576C17.7719 34.281 17.8273 34.3099 17.8796 34.344C17.8174 34.3324 17.7569 34.3131 17.6996 34.2864C17.5862 34.245 17.426 34.1784 17.228 34.0938C16.832 33.9138 16.2938 33.6708 15.7016 33.39L14.1806 32.67L13.7198 32.4558C13.6619 32.4363 13.6063 32.4104 13.5542 32.3784Z" fill="#E0E0E0"/>
<path d="M18.0612 34.2C18.0414 34.2 18.4968 33.0516 19.0782 31.6566C19.6596 30.2616 20.1582 29.1366 20.169 29.1366C20.1798 29.1366 19.7352 30.285 19.152 31.6818C18.5688 33.0786 18.0828 34.2 18.0612 34.2Z" fill="#E0E0E0"/>
<path d="M20.5669 40.419C20.5992 40.3641 20.6372 40.3128 20.6803 40.266C20.7667 40.1562 20.8765 40.0212 21.0061 39.861C21.2797 39.519 21.6577 39.0438 22.0555 38.5056C22.4533 37.9674 22.7971 37.4706 23.0437 37.107L23.3353 36.6768C23.3683 36.6224 23.4063 36.5712 23.4487 36.5238C23.4271 36.5839 23.3974 36.6408 23.3605 36.693C23.2993 36.801 23.2075 36.9522 23.0905 37.1376C22.8565 37.5102 22.5199 38.016 22.1185 38.5542C21.7171 39.0924 21.3355 39.564 21.0493 39.897C20.9053 40.0626 20.7883 40.1958 20.7037 40.2858C20.6637 40.3356 20.6178 40.3804 20.5669 40.419Z" fill="#E0E0E0"/>
<path d="M16.1282 39.6792C16.1884 39.6753 16.2489 39.6789 16.3082 39.69L16.7852 39.7494C17.1866 39.8052 17.741 39.8862 18.353 39.9798C18.965 40.0734 19.5176 40.1598 19.9172 40.2318L20.3906 40.3182C20.4491 40.325 20.5065 40.3389 20.5616 40.3596C20.5014 40.3636 20.4409 40.36 20.3816 40.3488L19.9064 40.2894C19.5032 40.2336 18.9488 40.1526 18.3368 40.059C17.7248 39.9654 17.1722 39.879 16.7726 39.807L16.301 39.7206C16.242 39.7133 16.1841 39.6994 16.1282 39.6792Z" fill="#E0E0E0"/>
<path d="M17.6401 45.459C17.7155 45.4571 17.7908 45.4625 17.8651 45.4752L18.4771 45.5508C18.9919 45.6174 19.7029 45.7146 20.4877 45.828C21.2725 45.9414 21.9835 46.0476 22.4965 46.1304L23.1049 46.2294C23.1799 46.2396 23.254 46.2559 23.3263 46.278C23.2504 46.2799 23.1744 46.2745 23.0995 46.2618L22.4893 46.1862C21.9745 46.1196 21.2617 46.0206 20.4769 45.9072C19.6921 45.7938 18.9811 45.6876 18.4681 45.6066L17.8615 45.5058C17.7864 45.4971 17.7123 45.4815 17.6401 45.459Z" fill="#E0E0E0"/>
<path d="M23.1968 46.2204C23.237 46.1498 23.2834 46.083 23.3354 46.0206C23.4362 45.8838 23.5694 45.7074 23.7296 45.4932C24.0626 45.0468 24.5198 44.4294 25.0058 43.7328C25.4918 43.0362 25.9166 42.3954 26.219 41.9328L26.579 41.3802C26.6197 41.3106 26.6661 41.2443 26.7176 41.1822C26.6861 41.2568 26.6482 41.3284 26.6042 41.3964C26.5268 41.5314 26.4116 41.7258 26.2658 41.9616C25.9742 42.4368 25.5566 43.0848 25.0688 43.7814C24.581 44.478 24.1184 45.0936 23.7728 45.531C23.5928 45.7488 23.4578 45.9252 23.357 46.044C23.3094 46.1078 23.2557 46.1669 23.1968 46.2204Z" fill="#E0E0E0"/>
<path d="M65.2446 42.237C60.633 39.9168 58.8978 34.6212 58.3578 29.7144C58.2678 28.8954 58.0536 28.0494 58.338 27.279C58.6224 26.5086 59.4558 25.8876 60.2352 26.127C60.8814 26.3232 61.2468 26.9892 61.6752 27.522C62.2396 28.2338 62.9942 28.7712 63.8514 29.0718C64.4094 29.2662 65.0754 29.3382 65.547 28.9818C66.1932 28.4922 66.1356 27.5094 66.0132 26.6994C65.7852 25.1886 65.5572 23.679 65.3292 22.1706C65.2068 21.3606 65.0862 20.5344 65.2266 19.728C65.367 18.9216 65.8206 18.1278 66.5604 17.8002C67.3002 17.4726 68.319 17.7786 68.5962 18.549C68.7114 18.8694 68.6934 19.2222 68.7654 19.5552C68.8374 19.8882 69.0462 20.2374 69.3792 20.286C69.7122 20.3346 70.0092 20.0574 70.2162 19.7838C70.9362 18.846 71.3502 17.7084 71.73 16.5834C72.1098 15.4584 72.468 14.31 73.098 13.3074C73.728 12.3048 74.6766 11.4462 75.8268 11.2122C76.977 10.9782 78.3198 11.5164 78.777 12.6144C79.2342 13.7124 78.7374 14.9706 78.1452 16.0002C77.2709 17.5295 76.1795 18.924 74.9052 20.1402C74.6748 20.358 74.4264 20.5938 74.3652 20.9088C74.268 21.474 74.8566 21.9366 75.4164 22.0374C76.05 22.1508 76.6962 21.9942 77.3388 21.9762C77.9814 21.9582 78.7068 22.14 79.0326 22.6962C79.4844 23.4774 78.9174 24.4458 78.3126 25.1136C77.1121 26.4502 75.6903 27.57 74.1096 28.4238C73.5444 28.728 72.945 29.0106 72.5238 29.5038C72.1026 29.997 71.919 30.7638 72.2916 31.2912C72.6642 31.8186 73.4364 31.896 74.0448 31.689C74.6532 31.482 75.1626 31.0626 75.726 30.753C76.779 30.1716 78.228 30.033 79.0812 30.8988C79.641 31.464 79.8102 32.3388 79.6824 33.129C79.5546 33.9192 79.1676 34.6356 78.7428 35.3088C77.2596 37.6614 75.2184 39.6792 72.7632 40.9482C70.308 42.2172 67.95 42.8058 65.2464 42.2388" fill="#F5F5F5"/>
<path d="M66.0601 38.9934C66.487 36.2166 67.0723 33.4665 67.8133 30.7566L68.3857 28.62C68.5747 27.9198 68.7619 27.225 68.9869 26.5572C69.4213 25.2749 69.9267 24.0178 70.5007 22.7916C71.0407 21.618 71.5933 20.5236 72.1207 19.503C72.6481 18.4824 73.1611 17.5428 73.6615 16.7058C74.4465 15.381 75.3355 14.1207 76.3201 12.9366C76.6675 12.5172 76.9483 12.2004 77.1409 11.9898L77.3605 11.7504C77.3844 11.7217 77.4109 11.6952 77.4397 11.6712C77.4208 11.703 77.3985 11.7326 77.3731 11.7594L77.1625 12.0096C76.9825 12.2274 76.7053 12.5496 76.3651 12.9744C75.4009 14.1675 74.5273 15.431 73.7515 16.7544C73.2565 17.5932 72.7525 18.5346 72.2305 19.5552C71.7085 20.5758 71.1595 21.672 70.6249 22.8438C70.0548 24.0693 69.5525 25.3252 69.1201 26.6058C68.8969 27.2718 68.7115 27.9594 68.5225 28.6614C68.3335 29.3634 68.1463 30.0762 67.9537 30.7962C67.2132 33.5007 66.6249 36.2446 66.1915 39.015" fill="#E0E0E0"/>
<path d="M69.0284 26.5464C68.9731 26.4399 68.9296 26.3276 68.8988 26.2116C68.825 25.9938 68.7188 25.6716 68.6108 25.281C68.3804 24.489 68.0978 23.3874 67.7918 22.1706C67.4858 20.9538 67.187 19.8576 66.9458 19.0728C66.8252 18.6804 66.7244 18.3636 66.6524 18.1458C66.6079 18.0344 66.5753 17.9185 66.5552 17.8002C66.6179 17.9021 66.6686 18.0108 66.7064 18.1242C66.7964 18.3366 66.9116 18.6498 67.0466 19.0404C67.3148 19.818 67.6298 20.9142 67.9376 22.1328L68.7134 25.2522C68.8082 25.6266 68.8892 25.941 68.9564 26.1954C68.9937 26.3093 69.0179 26.4271 69.0284 26.5464Z" fill="#E0E0E0"/>
<path d="M79.1677 23.0922C79.0353 23.1416 78.8985 23.1783 78.7591 23.202C78.4963 23.265 78.1129 23.3532 77.6449 23.4774C76.7053 23.7186 75.4183 24.0966 74.0179 24.5754C72.6175 25.0542 71.3683 25.5492 70.4755 25.929C70.0273 26.109 69.6691 26.2782 69.4207 26.388C69.2953 26.4533 69.1639 26.5063 69.0283 26.5464C69.1414 26.4645 69.262 26.3934 69.3883 26.334C69.6295 26.208 69.9823 26.0316 70.4251 25.83C71.3107 25.4232 72.5581 24.9156 73.9621 24.4314C75.1599 24.016 76.3783 23.6627 77.6125 23.373C78.0859 23.2614 78.4729 23.193 78.7411 23.1444C78.8813 23.1133 79.0242 23.0958 79.1677 23.0922Z" fill="#E0E0E0"/>
<path d="M66.1627 38.7828C66.1276 38.7487 66.0973 38.7099 66.0727 38.6676C66.0097 38.5722 65.9341 38.4552 65.8405 38.3076C65.6389 38.0016 65.3599 37.5516 65.0233 36.9918C64.3483 35.8704 63.4645 34.2918 62.5123 32.5368C61.5601 30.7818 60.6907 29.205 60.0391 28.08L59.2651 26.7408L59.0563 26.3808C59.029 26.3394 59.0072 26.2946 58.9915 26.2476C59.0269 26.2821 59.0572 26.3215 59.0815 26.3646L59.3137 26.7246C59.5153 27.0306 59.7943 27.4806 60.1309 28.0422C60.8059 29.1636 61.6915 30.7422 62.6509 32.4972C63.6103 34.2522 64.4707 35.8344 65.1223 36.9684L65.8963 38.3094C65.9809 38.4552 66.0493 38.5776 66.1051 38.6694C66.1285 38.7049 66.1479 38.7429 66.1627 38.7828Z" fill="#E0E0E0"/>
<path d="M79.3656 32.319C79.3258 32.3496 79.2822 32.375 79.236 32.3946L78.8544 32.58L77.4414 33.2748C76.248 33.8634 74.6082 34.6932 72.7992 35.6148C70.9902 36.5364 69.3396 37.35 68.1336 37.9134C67.5306 38.1942 67.041 38.4174 66.6936 38.565L66.2994 38.7306C66.2548 38.7541 66.2069 38.7705 66.1572 38.7792C66.1974 38.7492 66.2409 38.7239 66.2868 38.7036L66.6684 38.511L68.0832 37.8162C69.2766 37.2294 70.9146 36.3996 72.7254 35.4762C74.5362 34.5528 76.1832 33.741 77.3892 33.1776C77.9922 32.8968 78.4818 32.6736 78.8292 32.526L79.2234 32.3604C79.2684 32.3394 79.3164 32.3255 79.3656 32.319Z" fill="#E0E0E0"/>
<path d="M102.28 20.097C102.28 17.1594 99.1944 15.3 96.048 16.7706C95.337 17.104 94.7552 17.6618 94.392 18.3582C93.6018 19.8918 93.951 21.6414 94.6692 23.0958L97.1172 29.3004C97.1944 29.4983 97.3295 29.6683 97.5048 29.7882C97.6802 29.908 97.8876 29.9722 98.1 29.9722C98.3124 29.9722 98.5199 29.908 98.6953 29.7882C98.8706 29.6683 99.0057 29.4983 99.0828 29.3004L101.484 23.0616C102.314 21.1554 102.28 20.097 102.28 20.097ZM99.324 22.653C97.209 23.8824 95.0652 21.609 96.2244 19.3662C96.3757 19.067 96.6093 18.8172 96.8976 18.6462C99.0126 17.4168 101.155 19.6902 99.9954 21.933C99.8448 22.2321 99.6119 22.4819 99.324 22.653Z" fill="#F5F5F5"/>
<path d="M127.8 79.9344C127.8 79.9614 100.8 79.9812 67.5107 79.9812C34.2215 79.9812 7.21069 79.9614 7.21069 79.9344C7.21069 79.9074 34.1999 79.8876 67.5107 79.8876C100.821 79.8876 127.8 79.9092 127.8 79.9344Z" fill="#263238"/>
<path d="M58.3488 79.9344L34.4232 79.8246C33.0419 79.816 31.7203 79.2603 30.748 78.2792C29.7756 77.2981 29.2318 75.9715 29.2356 74.5902L29.4894 14.6088C29.4975 13.2269 30.0533 11.9045 31.0348 10.9317C32.0164 9.95895 33.3437 9.41509 34.7256 9.4194L58.6512 9.5292C60.0319 9.53776 61.3529 10.093 62.3252 11.0733C63.2974 12.0537 63.8417 13.3793 63.8388 14.76L63.585 74.7414C63.5779 76.124 63.0225 77.4472 62.0409 78.4208C61.0592 79.3943 59.7314 79.9387 58.3488 79.9344Z" fill="#455A64"/>
<path d="M58.617 11.5992L53.9784 11.5776C53.673 11.5833 53.3823 11.7098 53.1701 11.9295C52.9578 12.1492 52.8414 12.444 52.8462 12.7494V13.5918C52.8486 13.743 52.8211 13.8932 52.7654 14.0338C52.7097 14.1744 52.6268 14.3026 52.5214 14.4111C52.4161 14.5196 52.2904 14.6063 52.1516 14.6661C52.0127 14.726 51.8634 14.7579 51.7122 14.76L42.669 14.7186C42.3637 14.7097 42.0744 14.5803 41.8643 14.3587C41.6542 14.1371 41.5403 13.8413 41.5476 13.536V12.6936C41.5529 12.3903 41.4386 12.0972 41.2294 11.8775C41.0202 11.6579 40.733 11.5294 40.4298 11.52H38.799L34.74 11.4894C33.7721 11.4846 32.842 11.8644 32.1541 12.5452C31.4662 13.226 31.0768 14.1522 31.0716 15.12L30.825 73.6668C30.8207 74.6347 31.2009 75.5646 31.8821 76.2522C32.5632 76.9397 33.4895 77.3287 34.4574 77.3334L58.3362 77.4432C58.8156 77.4454 59.2907 77.3531 59.7344 77.1716C60.1781 76.9901 60.5817 76.723 60.9222 76.3855C61.2626 76.048 61.5333 75.6468 61.7187 75.2047C61.9041 74.7627 62.0007 74.2884 62.0028 73.809L62.2494 15.264C62.2515 14.7849 62.1593 14.31 61.9779 13.8665C61.7965 13.423 61.5295 13.0196 61.1922 12.6793C60.8549 12.339 60.4539 12.0685 60.012 11.8831C59.5702 11.6978 59.0961 11.6013 58.617 11.5992Z" fill="#FAFAFA"/>
<path d="M31.0427 22.149H34.9559L38.4479 25.6428L34.8173 29.2734L31.0841 25.5384L31.0427 22.149Z" fill="#EBEBEB"/>
<path d="M39.2454 24.1092L37.2834 22.149H41.697L39.2454 24.1092Z" fill="#EBEBEB"/>
<path d="M40.9607 25.7112L44.3969 22.275H56.4029C56.4029 22.275 58.2407 30.483 51.0029 35.7534L40.9607 25.7112Z" fill="#EBEBEB"/>
<path d="M39.4903 26.8056L35.8147 30.483L45.9865 40.6548L49.6621 36.855L39.4903 26.8056Z" fill="#EBEBEB"/>
<path d="M30.9978 32.5674L33.3018 30.177L31.0428 27.918L30.9978 32.5674Z" fill="#EBEBEB"/>
<path d="M34.6806 31.5864L31.1418 35.1252V40.0428L38.448 47.5182L44.6382 41.7582L34.6806 31.5864Z" fill="#EBEBEB"/>
<path d="M52.3801 36.7848C52.3801 36.7848 59.9617 31.2264 57.5101 22.275H62.2243L62.1667 47.5398L52.3801 36.7848Z" fill="#EBEBEB"/>
<path d="M50.9543 38.2428L47.2896 42.0696L58.5288 53.3106L61.9668 49.6674L50.9543 38.2428Z" fill="#EBEBEB"/>
<path d="M45.7579 43.1172L39.9961 48.8376L51.5197 60.2802L57.2707 54.72L45.7579 43.1172Z" fill="#EBEBEB"/>
<path d="M42.7373 71.7786L51.5465 62.649L59.9255 71.19L42.7373 71.7786Z" fill="#EBEBEB"/>
<path d="M52.9199 61.47L62.0999 52.38C62.0999 52.7832 62.0207 71.2278 62.0207 71.2278L52.9199 61.47Z" fill="#EBEBEB"/>
<path d="M45.0667 56.3652L50.2705 61.569L39.9961 72.171L35.2495 66.4776L45.0667 56.3652Z" fill="#EBEBEB"/>
<path d="M31.0068 67.2156C31.4982 67.167 44.082 55.3824 44.082 55.3824L31.0068 41.8338V67.2156Z" fill="#EBEBEB"/>
<path d="M30.825 69.9012L33.8544 67.2156L38.0502 72.171H30.825V70.2756" fill="#EBEBEB"/>
<path d="M34.7401 18.5814C34.4199 18.3452 34.119 18.084 33.8401 17.8002C33.8401 17.6634 33.8401 17.7624 33.8401 17.7318L33.8527 17.721L33.8743 17.7012L33.9193 17.6598L34.0057 17.5788L34.1695 17.4276L34.4521 17.1756C34.5377 17.0882 34.6345 17.0125 34.7401 16.9506C34.6759 17.0485 34.5983 17.137 34.5097 17.2134L34.2397 17.4798L34.0795 17.6346L33.9931 17.7174L33.9499 17.7588L33.9265 17.7786L33.9157 17.7894V17.721C34.2125 17.9859 34.4881 18.2736 34.7401 18.5814Z" fill="#263238"/>
<path d="M59.6251 17.208C59.6254 17.247 59.6142 17.2852 59.5927 17.3177C59.5713 17.3502 59.5407 17.3757 59.5048 17.3907C59.4688 17.4058 59.4293 17.4098 59.391 17.4023C59.3528 17.3948 59.3177 17.3761 59.2901 17.3485C59.2626 17.321 59.2439 17.2859 59.2363 17.2476C59.2288 17.2094 59.2329 17.1698 59.2479 17.1339C59.263 17.098 59.2884 17.0674 59.321 17.0459C59.3535 17.0245 59.3917 17.0133 59.4307 17.0136C59.4822 17.0136 59.5317 17.0341 59.5681 17.0706C59.6046 17.107 59.6251 17.1565 59.6251 17.208Z" fill="#263238"/>
<path d="M59.5692 17.7426C59.5967 17.77 59.6154 17.805 59.623 17.843C59.6306 17.8811 59.6267 17.9206 59.6119 17.9564C59.597 17.9923 59.5719 18.023 59.5396 18.0446C59.5073 18.0661 59.4694 18.0776 59.4306 18.0776C59.3918 18.0776 59.3538 18.0661 59.3215 18.0446C59.2893 18.023 59.2641 17.9923 59.2493 17.9564C59.2344 17.9206 59.2306 17.8811 59.2382 17.843C59.2458 17.805 59.2645 17.77 59.292 17.7426C59.329 17.7063 59.3787 17.686 59.4306 17.686C59.4824 17.686 59.5322 17.7063 59.5692 17.7426Z" fill="#263238"/>
<path d="M59.6249 18.5526C59.6202 18.6012 59.5976 18.6463 59.5615 18.6791C59.5254 18.7119 59.4784 18.73 59.4296 18.73C59.3808 18.73 59.3338 18.7119 59.2977 18.6791C59.2616 18.6463 59.239 18.6012 59.2343 18.5526C59.2317 18.5254 59.2348 18.4979 59.2434 18.472C59.252 18.446 59.266 18.4222 59.2844 18.4019C59.3028 18.3817 59.3252 18.3655 59.3502 18.3544C59.3752 18.3434 59.4023 18.3376 59.4296 18.3376C59.457 18.3376 59.484 18.3434 59.509 18.3544C59.534 18.3655 59.5564 18.3817 59.5748 18.4019C59.5932 18.4222 59.6072 18.446 59.6158 18.472C59.6244 18.4979 59.6275 18.5254 59.6249 18.5526Z" fill="#263238"/>
<path d="M51.1902 18.0054H42.7698V18.7074H51.1902V18.0054Z" fill="#263238"/>
<path d="M50.274 30.6C50.274 27.3204 46.8288 25.2432 43.3152 26.8866C42.5202 27.258 41.8698 27.8812 41.4648 28.6596C40.581 30.3714 40.9716 32.3262 41.7726 33.9498L44.5086 40.8816C44.595 41.1025 44.746 41.2922 44.9419 41.4259C45.1378 41.5596 45.3695 41.6311 45.6066 41.6311C45.8438 41.6311 46.0755 41.5596 46.2714 41.4259C46.4672 41.2922 46.6182 41.1025 46.7046 40.8816L49.3848 33.9138C50.3136 31.7898 50.274 30.6 50.274 30.6ZM46.98 33.462C44.6184 34.8354 42.2244 32.2974 43.5186 29.7918C43.6892 29.4614 43.9493 29.1857 44.2692 28.9962C46.6326 27.6228 49.0266 30.1608 47.7306 32.6664C47.5608 32.9973 47.3005 33.2732 46.98 33.462Z" fill="#FF725E"/>
<path d="M121.872 55.6416H22.0049V70.2954H121.872V55.6416Z" fill="#FF725E"/>
<g opacity="0.5">
<path d="M121.872 55.6416H22.0049V70.2954H121.872V55.6416Z" fill="black"/>
</g>
<path d="M36.0726 79.8039C41.3791 79.4468 45.3914 74.8555 45.0343 69.549C44.6772 64.2425 40.0859 60.2302 34.7794 60.5873C29.4729 60.9445 25.4606 65.5357 25.8177 70.8422C26.1749 76.1487 30.7661 80.161 36.0726 79.8039Z" fill="#263238"/>
<path d="M25.7976 70.0326C25.7976 70.0416 25.7976 70.0506 25.7976 70.0578C25.7793 71.3224 26.0103 72.5783 26.4773 73.7537C26.9443 74.929 27.6383 76.0009 28.5196 76.9081C29.4008 77.8153 30.4522 78.54 31.6135 79.0409C32.7749 79.5417 34.0235 79.809 35.2881 79.8273C36.5528 79.8456 37.8086 79.6147 38.984 79.1476C40.1594 78.6806 41.2313 77.9866 42.1384 77.1054C43.0456 76.2241 43.7703 75.1728 44.2712 74.0114C44.7721 72.8501 45.0393 71.6014 45.0576 70.3368C45.0576 70.3278 45.0576 70.3188 45.0576 70.3116L25.7976 70.0326Z" fill="#263238"/>
<path d="M28.665 70.0992C28.6452 71.4363 29.0225 72.7494 29.749 73.8721C30.4755 74.9949 31.5187 75.877 32.7466 76.4068C33.9745 76.9367 35.3319 77.0904 36.6472 76.8487C37.9625 76.607 39.1766 75.9806 40.1358 75.0488C41.0951 74.117 41.7564 72.9216 42.0363 71.6139C42.3161 70.3061 42.2018 68.9448 41.7078 67.702C41.2138 66.4593 40.3624 65.3909 39.2612 64.6321C38.16 63.8733 36.8584 63.4582 35.5212 63.4392C33.729 63.4137 32.0001 64.1009 30.7144 65.3498C29.4287 66.5987 28.6916 68.307 28.665 70.0992Z" fill="#FAFAFA"/>
<path d="M35.5212 63.4374C33.7289 63.4114 31.9996 64.0985 30.7139 65.3474C29.4281 66.5964 28.6911 68.305 28.665 70.0974L42.1848 70.2936C42.2103 68.5007 41.5226 66.7712 40.2729 65.4854C39.0233 64.1997 37.3141 63.463 35.5212 63.4374Z" fill="#E0E0E0"/>
<path d="M31.3073 70.137C31.2953 70.9516 31.5251 71.7514 31.9677 72.4353C32.4104 73.1193 33.0459 73.6566 33.7939 73.9793C34.5419 74.302 35.3688 74.3956 36.17 74.2483C36.9713 74.101 37.7108 73.7193 38.2951 73.1516C38.8794 72.584 39.2822 71.8557 39.4526 71.0591C39.623 70.2624 39.5533 69.4332 39.2523 68.6762C38.9513 67.9191 38.4325 67.2684 37.7617 66.8062C37.0908 66.3441 36.2979 66.0913 35.4833 66.0798C34.9427 66.0719 34.4059 66.1706 33.9034 66.3703C33.4009 66.5699 32.9427 66.8666 32.5549 67.2434C32.1671 67.6201 31.8574 68.0696 31.6433 68.5661C31.4292 69.0626 31.3151 69.5964 31.3073 70.137Z" fill="#263238"/>
<path d="M109.625 79.8005C114.934 79.4925 118.989 74.9386 118.681 69.629C118.373 64.3194 113.819 60.2648 108.509 60.5729C103.2 60.8809 99.1452 65.4348 99.4532 70.7444C99.7612 76.054 104.315 80.1085 109.625 79.8005Z" fill="#263238"/>
<path d="M99.4356 70.0326C99.4356 70.0416 99.4356 70.0506 99.4356 70.0578C99.4173 71.3224 99.6482 72.5783 100.115 73.7537C100.582 74.929 101.276 76.0009 102.158 76.9081C103.039 77.8153 104.09 78.54 105.251 79.0409C106.413 79.5417 107.661 79.809 108.926 79.8273C110.191 79.8456 111.447 79.6147 112.622 79.1476C113.797 78.6806 114.869 77.9866 115.776 77.1054C116.684 76.2241 117.408 75.1728 117.909 74.0114C118.41 72.8501 118.677 71.6014 118.696 70.3368C118.696 70.3278 118.696 70.3188 118.696 70.3116L99.4356 70.0326Z" fill="#263238"/>
<path d="M102.303 70.0992C102.283 71.4363 102.66 72.7494 103.387 73.8721C104.113 74.9949 105.157 75.877 106.385 76.4068C107.612 76.9367 108.97 77.0904 110.285 76.8487C111.6 76.607 112.815 75.9806 113.774 75.0488C114.733 74.117 115.394 72.9216 115.674 71.6139C115.954 70.3061 115.84 68.9448 115.346 67.702C114.852 66.4593 114 65.3909 112.899 64.6321C111.798 63.8733 110.496 63.4582 109.159 63.4392C107.367 63.4137 105.638 64.1009 104.352 65.3498C103.067 66.5987 102.33 68.307 102.303 70.0992Z" fill="#FAFAFA"/>
<path d="M109.159 63.4374C107.367 63.4114 105.638 64.0985 104.352 65.3474C103.066 66.5964 102.329 68.305 102.303 70.0974L115.823 70.2936C115.848 68.5007 115.161 66.7712 113.911 65.4854C112.661 64.1997 110.952 63.463 109.159 63.4374Z" fill="#E0E0E0"/>
<path d="M104.94 70.137C104.928 70.9516 105.158 71.7514 105.6 72.4353C106.043 73.1193 106.678 73.6566 107.426 73.9793C108.174 74.302 109.001 74.3956 109.803 74.2483C110.604 74.101 111.343 73.7193 111.928 73.1516C112.512 72.584 112.915 71.8557 113.085 71.0591C113.256 70.2624 113.186 69.4332 112.885 68.6762C112.584 67.9191 112.065 67.2684 111.394 66.8062C110.723 66.3441 109.93 66.0913 109.116 66.0798C108.575 66.0719 108.038 66.1706 107.536 66.3703C107.034 66.5699 106.575 66.8666 106.188 67.2434C105.8 67.6201 105.49 68.0696 105.276 68.5661C105.062 69.0626 104.948 69.5964 104.94 70.137Z" fill="#263238"/>
<path d="M48.0473 47.3976C48.0473 47.3976 33.8669 48.4434 28.6073 49.6224C24.9029 50.4522 17.7605 51.8868 17.8469 56.3796L18.4139 59.6016C18.4139 59.6016 15.7661 60.8112 15.7661 63.9C15.7661 66.9888 15.1199 71.7768 21.3047 71.9694C22.3235 72 24.2585 71.9694 24.2585 71.9694C24.2585 71.9694 23.0723 58.797 35.1719 58.4118C47.4821 58.0194 46.6649 71.8488 46.6649 71.8488H98.0423C98.0423 71.8488 95.9327 58.3758 109.184 58.3488C122.436 58.3218 120.42 71.937 120.42 71.937C120.42 71.937 125.294 72.3582 127.562 68.2614C129.83 64.1646 129.242 61.2414 129.242 61.2414L129.166 58.6512C129.152 58.2261 128.976 57.8223 128.676 57.5216C128.375 57.2208 127.971 57.0455 127.546 57.0312C127.546 57.0312 128.432 50.5116 127.073 49.383C125.714 48.2544 118.267 41.445 118.267 41.445L118.627 41.2236C118.761 41.1392 118.867 41.0188 118.935 40.8762C119.003 40.7336 119.029 40.5747 119.01 40.4179C118.991 40.2612 118.928 40.113 118.829 39.9905C118.729 39.868 118.597 39.7763 118.447 39.726C115.619 38.754 110.029 36.8298 108.715 36.3708C108.518 36.3008 108.313 36.2573 108.104 36.2412C107.32 36.1818 105.098 36.0414 101.021 35.9982C96.0551 35.9442 76.3379 35.9982 76.3379 35.9982C76.3379 35.9982 69.5519 36.5562 65.7719 38.2194C61.8083 39.969 48.0473 47.3976 48.0473 47.3976Z" fill="#FF725E"/>
<g opacity="0.4">
<path d="M19.3626 63.54C18.8478 63.4356 18.0594 63.4266 17.667 63.774C17.3754 64.0332 17.298 64.4526 17.2548 64.8396C17.1721 65.3697 17.1843 65.9103 17.2908 66.4362C17.3451 66.6989 17.453 66.9475 17.6079 67.1665C17.7628 67.3854 17.9612 67.5701 18.1908 67.7088C18.6624 67.9644 19.3068 67.923 19.6722 67.5288C20.007 67.1688 20.0448 66.6288 20.0322 66.1482C20.0196 65.4534 20.0754 64.8648 19.9476 64.1826C19.9194 64.0378 19.8577 63.9016 19.7676 63.7848C19.7227 63.7149 19.6624 63.6563 19.5912 63.6135C19.52 63.5708 19.4399 63.545 19.3572 63.5382" fill="black"/>
</g>
<path d="M18.4176 59.6016C19.9224 59.6016 21.3822 59.5188 22.8852 59.4216C23.0489 59.4288 23.2102 59.3799 23.3424 59.283C23.4028 59.2078 23.4478 59.1213 23.4747 59.0286C23.5016 58.936 23.5098 58.8389 23.499 58.743C23.499 57.9366 23.4666 57.0186 22.8546 56.493C22.4802 56.1726 21.9672 56.0718 21.4758 56.0268C20.2555 55.8949 19.0211 56.0175 17.8506 56.3868L18.4176 59.6016Z" fill="#FAFAFA"/>
<path d="M49.6798 71.4366C49.6798 71.4366 49.6798 71.3934 49.669 71.307C49.6582 71.2206 49.6546 71.0928 49.6438 70.929C49.6258 70.5942 49.5988 70.1064 49.5646 69.4764C49.5304 68.8464 49.4872 68.0742 49.3972 67.1814C49.3043 66.1705 49.1267 65.1692 48.8662 64.188C48.5377 63.0028 48.0502 61.8675 47.4172 60.813C46.7002 59.5953 45.7474 58.5329 44.6146 57.6882C42.1864 55.9602 38.905 54.9882 35.4724 54.9414C32.0398 54.8946 28.7566 55.98 26.3878 57.7998C25.2524 58.6398 24.2577 59.6551 23.4412 60.8076C22.7283 61.8082 22.1486 62.8973 21.7168 64.0476C21.3606 64.9983 21.116 65.9871 20.9878 66.9942C20.8874 67.7536 20.8579 68.5207 20.8996 69.2856C20.9292 69.7689 20.9893 70.2499 21.0796 70.7256C21.1084 70.8858 21.1318 71.01 21.1462 71.0964C21.1606 71.1828 21.166 71.2242 21.166 71.2242C21.166 71.2242 21.1552 71.1828 21.1372 71.1L21.0598 70.74C20.9619 70.265 20.8969 69.7839 20.8654 69.3C20.8165 68.5326 20.8406 67.7624 20.9374 66.9996C21.0615 65.9874 21.3031 64.993 21.6574 64.0368C22.0877 62.8774 22.6674 61.7792 23.3818 60.7698C24.2002 59.608 25.1992 58.5846 26.341 57.7386C28.7206 55.9098 32.011 54.8136 35.4706 54.8586C38.9302 54.9036 42.217 55.8846 44.665 57.6288C45.8046 58.482 46.7623 59.5541 47.482 60.7824C48.1144 61.845 48.5989 62.989 48.922 64.1826C49.181 65.1679 49.355 66.1735 49.4422 67.1886C49.5268 68.0886 49.5646 68.8554 49.5934 69.4854C49.6222 70.1154 49.642 70.605 49.6564 70.9398C49.6564 71.1036 49.6672 71.2296 49.6708 71.3178C49.6744 71.406 49.6798 71.4366 49.6798 71.4366Z" fill="white"/>
<path d="M50.2199 71.6598V71.5518L50.2091 71.2332C50.2001 70.9488 50.1875 70.533 50.1695 69.9894C50.1389 68.8968 50.0939 67.3002 50.0363 65.268C49.9787 63.2358 49.9121 60.768 49.8347 57.942C49.8149 57.2346 49.7969 56.502 49.7753 55.755C49.7627 55.3732 49.7795 54.9911 49.8257 54.612L49.9067 54.0324L50.0255 53.451C50.2119 52.6567 50.4803 51.8839 50.8265 51.1452C51.183 50.3708 51.6236 49.6379 52.1405 48.96L61.0379 43.3548L63.4409 41.8428C64.2509 41.3046 65.1012 40.8298 65.9843 40.4226C66.8874 39.9973 67.8141 39.6241 68.7599 39.3048C69.2315 39.1392 69.7157 39.0042 70.1999 38.8602C70.6841 38.7162 71.1773 38.5974 71.6777 38.5002C73.5646 38.0965 75.4826 37.8556 77.4107 37.7802C79.2608 37.6915 81.1142 37.6975 82.9637 37.7982H83.0159L83.0033 37.8504L80.6129 48.5442C80.1713 49.2693 79.8092 50.04 79.5329 50.8428C79.2609 51.6042 79.1387 52.411 79.1729 53.2188C79.2341 54.009 79.2557 54.783 79.2755 55.5336C79.2953 56.2842 79.3043 57.0114 79.3187 57.7188C79.3601 60.5448 79.3709 63.009 79.3781 65.0394C79.3853 67.0698 79.3781 68.6664 79.3781 69.7572C79.3781 70.2972 79.3781 70.7166 79.3781 71.001C79.3781 71.1396 79.3781 71.2458 79.3781 71.3196C79.3781 71.3934 79.3781 71.4276 79.3781 71.4276C79.3781 71.4276 79.3781 71.3898 79.3781 71.3196C79.3781 71.2494 79.3781 71.1396 79.3781 71.001C79.3781 70.7166 79.3781 70.3008 79.3781 69.7572C79.3781 68.6664 79.3619 67.0698 79.3493 65.0412C79.3367 63.0126 79.3187 60.5412 79.2701 57.7188C79.2557 57.0132 79.2401 56.2854 79.2233 55.5354C79.2017 54.7848 79.1801 54.0144 79.1171 53.2242C79.0806 52.4062 79.2028 51.589 79.4771 50.8176C79.7515 50.0083 80.1137 49.2315 80.5571 48.501V48.5136C81.2897 45.2214 82.0907 41.6286 82.9385 37.818L82.9799 37.872C81.1346 37.7725 79.2853 37.7677 77.4395 37.8576C75.5161 37.932 73.6027 38.1729 71.7209 38.5776C71.2223 38.6766 70.7363 38.8152 70.2485 38.9376C69.7607 39.06 69.2837 39.2166 68.8085 39.3804C67.8626 39.7002 66.9359 40.074 66.0329 40.5C65.1542 40.9044 64.3081 41.3763 63.5021 41.9112L61.0973 43.4232L52.1999 49.0158V49.0068C51.684 49.6802 51.2445 50.4089 50.8895 51.1794C50.5437 51.9125 50.2759 52.6799 50.0903 53.469C49.6853 55.0116 49.8887 56.529 49.8923 57.942L50.0723 65.268C50.1209 67.2984 50.1587 68.8968 50.1839 69.9876C50.1965 70.5276 50.2037 70.9488 50.2109 71.2332C50.2109 71.3712 50.2109 71.4774 50.2109 71.5518C50.2199 71.6238 50.2199 71.6598 50.2199 71.6598Z" fill="#263238"/>
<path d="M82.8989 38.0952H82.9835L83.2301 38.0862L84.1859 38.0628L87.7301 37.9944L99.6785 37.7892H99.7019L99.7163 37.8072L101.39 39.8574C103.086 41.94 104.702 43.92 106.171 45.72L106.711 46.386C106.886 46.6092 107.036 46.8506 107.159 47.106C107.382 47.5796 107.503 48.0947 107.515 48.6181C107.526 49.1415 107.428 49.6614 107.226 50.1444L106.686 51.4044L105.034 55.2276L104.58 56.2644L104.459 56.5344C104.432 56.5938 104.416 56.6244 104.416 56.6244C104.416 56.6244 104.427 56.592 104.45 56.5308C104.474 56.4696 104.515 56.3742 104.562 56.2572C104.665 56.016 104.81 55.6632 104.999 55.2132L106.619 51.3792C106.929 50.5656 107.474 49.7088 107.437 48.6648C107.429 48.1342 107.306 47.6116 107.077 47.133C106.956 46.8844 106.809 46.6496 106.637 46.4328L106.097 45.7668L101.311 39.9096L99.6389 37.8594L99.6749 37.8774L87.7247 38.0574L84.1805 38.0988H83.2247H82.9799L82.8989 38.0952Z" fill="#263238"/>
<path d="M76.8599 53.9856C76.8599 53.9856 76.9103 53.9856 77.0021 53.964C77.1372 53.94 77.2658 53.8886 77.3801 53.8128C77.5615 53.6945 77.6973 53.518 77.7653 53.3124C77.8066 53.1847 77.8237 53.0504 77.8157 52.9164C77.8115 52.767 77.7733 52.6205 77.7041 52.488C77.6237 52.3372 77.5043 52.2107 77.3583 52.1218C77.2124 52.0328 77.0452 51.9846 76.8743 51.9822H75.6611H72.8801C72.6453 51.9826 72.4191 52.0712 72.2465 52.2306C72.0781 52.3839 71.9707 52.593 71.9441 52.8192C71.9168 53.0378 71.957 53.2595 72.0593 53.4546C72.1638 53.6378 72.3257 53.7815 72.5201 53.8632C72.7126 53.9292 72.9168 53.9543 73.1195 53.937H73.7081H74.7665L76.2983 53.9514L76.7141 53.9604C76.763 53.9594 76.8118 53.963 76.8599 53.9712C76.8115 53.9769 76.7629 53.9799 76.7141 53.9802H76.2983L74.7665 53.9946H73.7081H73.1195C73.0169 53.9946 72.9179 53.9946 72.8081 53.9946C72.698 53.9879 72.5897 53.9629 72.4877 53.9208C72.2743 53.8331 72.0963 53.6766 71.9819 53.4762C71.8677 53.2656 71.823 53.0243 71.8541 52.7868C71.8824 52.5343 72.0026 52.301 72.1918 52.1314C72.381 51.9617 72.626 51.8676 72.8801 51.867H75.6611H76.8761C77.0598 51.8709 77.2391 51.9243 77.3949 52.0215C77.5508 52.1188 77.6775 52.2563 77.7617 52.4196C77.8338 52.5614 77.8726 52.7178 77.8751 52.8768C77.881 53.0173 77.8608 53.1576 77.8157 53.2908C77.7396 53.5047 77.593 53.6862 77.3999 53.8056C77.2809 53.8813 77.146 53.9287 77.0057 53.9442C76.959 53.9637 76.91 53.9776 76.8599 53.9856Z" fill="#263238"/>
<path d="M103.5 53.9856C103.5 53.9856 103.55 53.9856 103.642 53.964C103.777 53.94 103.906 53.8886 104.02 53.8128C104.201 53.6945 104.337 53.518 104.405 53.3124C104.446 53.1847 104.464 53.0504 104.456 52.9164C104.451 52.767 104.413 52.6205 104.344 52.488C104.264 52.3372 104.144 52.2107 103.998 52.1218C103.852 52.0328 103.685 51.9846 103.514 51.9822H102.301H99.52C99.2851 51.9826 99.059 52.0712 98.8864 52.2306C98.718 52.3839 98.6106 52.593 98.584 52.8192C98.5567 53.0378 98.5969 53.2595 98.6992 53.4546C98.8037 53.6378 98.9656 53.7815 99.16 53.8632C99.3525 53.9292 99.5567 53.9543 99.7594 53.937H100.348H101.406L102.938 53.9514L103.354 53.9604C103.403 53.9594 103.452 53.963 103.5 53.9712C103.451 53.9769 103.403 53.9799 103.354 53.9802H102.938L101.406 53.9946H100.348H99.7594C99.6568 53.9946 99.5578 53.9946 99.448 53.9946C99.3379 53.9879 99.2296 53.9629 99.1276 53.9208C98.9142 53.8331 98.7362 53.6766 98.6218 53.4762C98.5076 53.2656 98.4629 53.0243 98.494 52.7868C98.5223 52.5343 98.6425 52.301 98.8317 52.1314C99.0209 51.9617 99.2659 51.8676 99.52 51.867H102.301H103.516C103.7 51.8709 103.879 51.9243 104.035 52.0215C104.191 52.1188 104.317 52.2563 104.402 52.4196C104.474 52.5614 104.512 52.7178 104.515 52.8768C104.521 53.0173 104.501 53.1576 104.456 53.2908C104.38 53.5047 104.233 53.6862 104.04 53.8056C103.921 53.8813 103.786 53.9287 103.646 53.9442C103.599 53.9637 103.55 53.9776 103.5 53.9856Z" fill="#263238"/>
<path d="M126.844 49.6404H121.516C121.158 49.6403 120.806 49.738 120.5 49.9229C120.193 50.1078 119.943 50.373 119.775 50.6898C119.638 50.9519 119.562 51.2416 119.552 51.5373C119.542 51.833 119.598 52.1272 119.718 52.398L121.806 57.1446L127.141 57.0924C127.141 57.0924 128.277 51.075 126.844 49.6404Z" fill="#FAFAFA"/>
<path d="M52.8479 48.969L80.3393 48.4614L98.2313 48.1338L104.132 44.7264C104.244 44.661 104.341 44.5726 104.416 44.467C104.492 44.3614 104.544 44.2409 104.569 44.1136C104.595 43.9863 104.593 43.8551 104.563 43.7286C104.534 43.6021 104.478 43.4833 104.4 43.38L100.726 38.5542C100.537 38.3057 100.294 38.1038 100.015 37.964C99.7362 37.8242 99.4289 37.7502 99.1169 37.7478L79.1045 37.5858C79.1045 37.5858 71.5697 37.1466 65.6315 40.4658C59.3873 43.9704 52.8479 48.969 52.8479 48.969Z" fill="#263238"/>
<path d="M65.4462 38.0844C65.4462 38.0844 66.825 38.7126 65.9286 39.294C65.0322 39.8754 51.1038 48.654 51.1038 48.654L47.9016 47.205C53.5734 44.0496 59.301 40.9806 65.4462 38.0844Z" fill="#455A64"/>
<path d="M51.5537 48.8772L51.4673 48.8988L51.2135 48.9546L50.2361 49.1562C49.3865 49.3254 48.1553 49.563 46.6361 49.8258C43.5761 50.3514 39.3425 50.9634 34.6319 51.3702C33.4529 51.4728 32.2919 51.5502 31.1903 51.6294C30.0887 51.7086 29.0051 51.7716 27.9863 51.8634C25.9469 52.0434 24.1217 52.3386 22.6385 52.7796C21.4596 53.1074 20.325 53.5777 19.2599 54.18C18.8765 54.3816 18.6029 54.5796 18.4103 54.6984L18.1907 54.837L18.1133 54.882C18.1364 54.8634 18.1604 54.846 18.1853 54.8298L18.3995 54.6822C18.5903 54.558 18.8603 54.3546 19.2419 54.1422C20.3006 53.5234 21.4326 53.0396 22.6115 52.7022C24.0983 52.2504 25.9289 51.9462 27.9701 51.7644C28.9907 51.6672 30.0635 51.5988 31.1759 51.525C32.2883 51.4512 33.4385 51.3648 34.6157 51.2622C39.3245 50.8554 43.5635 50.2542 46.6181 49.7448C48.1463 49.491 49.3775 49.2642 50.2289 49.1058L51.2099 48.9258L51.4655 48.879L51.5537 48.8772Z" fill="#263238"/>
<path d="M128.973 61.1874C128.973 61.2144 127.141 61.2342 124.882 61.2342C122.623 61.2342 120.789 61.2144 120.789 61.1874C120.789 61.1604 122.621 61.1406 124.882 61.1406C127.143 61.1406 128.973 61.1622 128.973 61.1874Z" fill="#263238"/>
<path d="M95.4521 65.8638C95.4521 65.8908 85.1093 65.9106 72.3527 65.9106C59.5961 65.9106 49.2515 65.8908 49.2515 65.8638C49.2515 65.8368 59.5925 65.817 72.3527 65.817C85.1129 65.817 95.4521 65.8386 95.4521 65.8638Z" fill="#263238"/>
<path d="M23.0399 61.3422C23.0399 61.3692 21.5765 61.389 19.7729 61.389C17.9693 61.389 16.5059 61.3692 16.5059 61.3422C16.5059 61.3152 17.9693 61.2954 19.7729 61.2954C21.5765 61.2954 23.0399 61.317 23.0399 61.3422Z" fill="#263238"/>
<path d="M118.129 41.2578C118.129 41.2578 116.901 42.6312 117.383 43.6392C117.866 44.6472 122.854 48.1788 122.854 48.1788L126.473 48.8574L118.129 41.2578Z" fill="#455A64"/>
<path d="M83.7125 38.7972L82.8989 47.5884L97.4645 47.1726L103.334 43.7598L99.5345 38.7972H83.7125Z" fill="#455A64"/>
<path d="M56.2966 48.0384C56.2966 48.0384 65.0842 41.6916 68.551 40.4298C71.8972 39.213 73.6414 38.907 76.7842 38.8098C79.7884 38.7234 81.619 38.8098 81.619 38.8098L79.297 47.7468L56.2966 48.0384Z" fill="#455A64"/>
<path d="M55.0115 48.06C55.0116 47.7867 55.0844 47.5184 55.2223 47.2824C55.3602 47.0465 55.5582 46.8514 55.7963 46.7172L57.8159 45.5832C58.3912 45.2593 59.0403 45.0894 59.7005 45.09C60.107 45.0905 60.5109 45.1549 60.8975 45.2808C61.3183 45.4264 61.6847 45.6968 61.9478 46.0561C62.2108 46.4153 62.3581 46.8462 62.3699 47.2914C62.3813 47.5903 62.3322 47.8885 62.2256 48.1681C62.119 48.4476 61.957 48.7028 61.7495 48.9182C61.5419 49.1337 61.293 49.3051 61.0176 49.422C60.7422 49.539 60.4461 49.5992 60.1469 49.599H56.5469C56.1393 49.598 55.7488 49.4354 55.461 49.1469C55.1731 48.8584 55.0115 48.4675 55.0115 48.06Z" fill="#FF725E"/>
<path d="M55.0115 48.06C55.0115 48.06 55.0115 48.1284 55.0349 48.2544C55.0621 48.4397 55.1231 48.6185 55.2149 48.7818C55.3604 49.0389 55.5749 49.2503 55.8341 49.392C55.9958 49.4766 56.1714 49.5315 56.3525 49.554C56.5591 49.5692 56.7664 49.5735 56.9735 49.5666L60.0533 49.5558C60.3452 49.5636 60.636 49.5159 60.9101 49.4154C61.1994 49.3072 61.4625 49.1389 61.6822 48.9218C61.9018 48.7046 62.073 48.4434 62.1845 48.1554C62.2979 47.8515 62.344 47.5266 62.3195 47.2032C62.2954 46.8844 62.2015 46.5749 62.0444 46.2965C61.8873 46.0181 61.6709 45.7776 61.4105 45.5922C61.1592 45.4184 60.8759 45.2961 60.5771 45.2322C59.7563 45.0381 58.8943 45.121 58.1255 45.468C57.8933 45.5724 57.6809 45.7038 57.4703 45.8172L56.8691 46.152L55.8341 46.7244C55.5737 46.8645 55.3589 47.0763 55.2149 47.3346C55.1241 47.4983 55.0632 47.6769 55.0349 47.862C55.0169 47.988 55.0187 48.0564 55.0133 48.0564C55.0066 47.9905 55.0066 47.9242 55.0133 47.8584C55.0336 47.6695 55.0898 47.4862 55.1789 47.3184C55.3204 47.0495 55.5375 46.828 55.8035 46.6812L56.8313 46.0962L57.4289 45.756C57.6377 45.6408 57.8501 45.5076 58.0877 45.396C58.8709 45.0354 59.7521 44.9467 60.5915 45.144C60.9011 45.2055 61.1954 45.3279 61.4573 45.504C61.7295 45.6968 61.9558 45.9473 62.12 46.2376C62.2843 46.5278 62.3825 46.8508 62.4077 47.1834C62.4341 47.5209 62.3861 47.86 62.2673 48.177C62.1511 48.4779 61.9723 48.7507 61.7426 48.9772C61.513 49.2038 61.2378 49.3789 60.9353 49.491C60.651 49.5934 60.35 49.6416 60.0479 49.6332L56.9681 49.6242C56.7585 49.6287 56.5488 49.622 56.3399 49.6044C56.1504 49.5781 55.9673 49.517 55.7999 49.4244C55.5347 49.276 55.3173 49.0549 55.1735 48.7872C55.0856 48.619 55.03 48.4358 55.0097 48.2472C55.0053 48.1848 55.0059 48.1222 55.0115 48.06Z" fill="#263238"/>
<path d="M122.713 71.5176C122.713 71.5176 122.713 71.4762 122.713 71.3934C122.713 71.3106 122.728 71.1864 122.738 71.0334C122.749 70.8804 122.767 70.6734 122.778 70.4394C122.789 70.2054 122.796 69.9318 122.805 69.6276C122.814 69.3234 122.805 68.9814 122.805 68.6106C122.805 68.2398 122.778 67.8348 122.728 67.4028C122.646 66.4237 122.472 65.4546 122.207 64.5084C122.052 63.9564 121.86 63.4152 121.633 62.8884C121.392 62.3192 121.102 61.7723 120.766 61.254C120.016 60.1113 119.061 59.1167 117.95 58.32C116.728 57.4323 115.363 56.7591 113.915 56.3292C112.414 55.8702 110.779 55.7028 109.116 55.6902C107.494 55.6753 105.879 55.9103 104.328 56.3868C103.594 56.6188 102.881 56.9132 102.197 57.267C101.545 57.6135 100.925 58.0183 100.346 58.4766C99.2701 59.3196 98.3112 60.3027 97.4952 61.3998C97.1365 61.9033 96.8198 62.4355 96.5484 62.991C96.301 63.5059 96.0822 64.0341 95.8932 64.5732C95.3181 66.1978 94.968 67.8936 94.8528 69.6132C94.824 70.2234 94.8276 70.6932 94.8438 71.0208C94.8528 71.1792 94.86 71.2998 94.8636 71.3808C94.8672 71.4618 94.8636 71.505 94.8636 71.505C94.8636 71.505 94.8636 71.4636 94.8492 71.3808C94.8348 71.298 94.8312 71.1738 94.8186 71.0208C94.7948 70.5513 94.7948 70.0809 94.8186 69.6114C94.9182 67.8822 95.2593 66.1754 95.832 64.5408C96.0211 63.9993 96.2386 63.4682 96.4836 62.9496C96.7573 62.39 97.0751 61.8531 97.434 61.344C98.2526 60.2399 99.2144 59.2496 100.294 58.3992C100.877 57.9374 101.5 57.5289 102.155 57.1788C102.844 56.8222 103.562 56.5253 104.301 56.2914C105.861 55.8093 107.486 55.5718 109.118 55.5876C110.788 55.6002 112.43 55.7676 113.944 56.232C115.402 56.666 116.775 57.3453 118.004 58.2408C118.574 58.6599 119.106 59.1273 119.596 59.6376C120.061 60.1164 120.475 60.6418 120.832 61.2054C121.17 61.7284 121.461 62.2802 121.702 62.8542C121.928 63.3808 122.119 63.922 122.272 64.4742C122.535 65.4252 122.705 66.3993 122.782 67.383C122.83 67.815 122.83 68.22 122.85 68.5926C122.87 68.9652 122.85 69.3126 122.85 69.6114C122.85 69.9102 122.823 70.1892 122.812 70.425C122.801 70.6608 122.778 70.857 122.764 71.019C122.749 71.181 122.738 71.298 122.731 71.379C122.724 71.46 122.713 71.5176 122.713 71.5176Z" fill="white"/>
<path d="M78.9119 48.969H78.8705H78.7481L78.2783 48.9798L76.5521 49.0104C75.0941 49.0374 73.0817 49.0914 70.8569 49.1526C68.6321 49.2138 66.6179 49.2552 65.1599 49.266C64.4309 49.266 63.8405 49.266 63.4319 49.266H62.9621H62.8415C62.8273 49.2687 62.8126 49.2687 62.7983 49.266C62.8126 49.2637 62.8272 49.2637 62.8415 49.266H62.9621L63.4319 49.2552L65.1581 49.2246C66.6161 49.1976 68.6303 49.1436 70.8551 49.0842C73.0799 49.0248 75.0941 48.9798 76.5521 48.969C77.2721 48.969 77.8715 48.969 78.2783 48.969H78.7481H78.8705H78.9119Z" fill="white"/>
<path d="M76.5252 51.6744C76.001 51.7218 75.4744 51.7374 74.9484 51.7212C74.4223 51.7374 73.8958 51.7218 73.3716 51.6744C73.8958 51.628 74.4223 51.6124 74.9484 51.6276C75.4744 51.6124 76.0009 51.628 76.5252 51.6744Z" fill="white"/>
<path d="M77.1047 42.0426C77.1137 42.066 75.1571 42.8814 72.7325 43.8624C70.3079 44.8434 68.3351 45.621 68.3243 45.5958C68.3135 45.5706 70.2719 44.757 72.6965 43.776C75.1211 42.795 77.0939 42.0192 77.1047 42.0426Z" fill="white"/>
<path d="M73.1375 42.66C73.1483 42.6852 71.2835 43.506 68.9741 44.4942C66.6647 45.4824 64.7855 46.2654 64.7747 46.242C64.7639 46.2186 66.6287 45.3978 68.9381 44.4078C71.2475 43.4178 73.1267 42.633 73.1375 42.66Z" fill="white"/>
<path d="M98.2944 41.7024C98.3052 41.7258 96.3468 42.5412 93.9222 43.5222C91.4976 44.5032 89.5248 45.279 89.514 45.2556C89.5032 45.2322 91.4616 44.4168 93.888 43.4358C96.3144 42.4548 98.28 41.6772 98.2944 41.7024Z" fill="white"/>
<path d="M94.3199 42.3162C94.3307 42.3414 92.4659 43.1622 90.1583 44.1504C87.8507 45.1386 85.9679 45.9216 85.9571 45.8982C85.9463 45.8748 87.8111 45.054 90.1205 44.064C92.4299 43.074 94.3199 42.3 94.3199 42.3162Z" fill="white"/>
<path d="M98.6777 48.96C98.6777 48.9852 94.7843 49.0302 89.9819 49.059C85.1795 49.0878 81.2861 49.0896 81.2861 49.059C81.2861 49.0284 85.1777 48.9888 89.9819 48.9618C94.7861 48.9348 98.6777 48.9402 98.6777 48.96Z" fill="white"/>
<path d="M102.989 51.525C102.989 51.5502 101.898 51.5808 100.55 51.5934C99.2016 51.606 98.1108 51.5934 98.1108 51.57C98.1108 51.5466 99.2016 51.5124 100.55 51.4998C101.898 51.4872 102.989 51.498 102.989 51.525Z" fill="white"/>
<path d="M28.44 50.193C28.4057 50.2046 28.37 50.2119 28.3338 50.2146L28.0296 50.2542C27.8964 50.2686 27.7344 50.2884 27.5472 50.3208C27.36 50.3532 27.1458 50.3766 26.9118 50.4234C26.442 50.5062 25.8858 50.6286 25.2774 50.7834C24.6184 50.9652 23.9689 51.1803 23.3316 51.4278C22.6548 51.696 22.0266 51.9894 21.465 52.2792C20.9034 52.569 20.4174 52.8606 20.025 53.1216C19.8216 53.2458 19.6452 53.3718 19.485 53.4816C19.3248 53.5914 19.1934 53.6814 19.0854 53.7606L18.8352 53.9406C18.8065 53.9627 18.7758 53.982 18.7434 53.9982C18.7673 53.9715 18.7938 53.9474 18.8226 53.9262L19.0638 53.7336C19.1682 53.6508 19.2978 53.5536 19.4544 53.4402C19.611 53.3268 19.782 53.2008 19.9944 53.0802C20.3904 52.812 20.88 52.5186 21.4344 52.218C22.6481 51.5691 23.9337 51.0647 25.2648 50.715C25.8768 50.5566 26.4366 50.4396 26.91 50.3658C27.1458 50.3226 27.36 50.301 27.549 50.2758C27.738 50.2506 27.909 50.2344 28.0332 50.2254L28.341 50.202C28.3738 50.1967 28.4068 50.1936 28.44 50.193Z" fill="white"/>
<path d="M60.5845 45.9468C60.5845 45.9468 60.5323 45.8766 60.4045 45.7794C60.2318 45.6472 60.0265 45.5644 59.8105 45.54C59.4864 45.513 59.1603 45.5478 58.8493 45.6426C57.7532 45.9186 56.7353 46.4427 55.8739 47.1744C55.4455 47.5344 55.2187 47.799 55.2061 47.7864C55.2496 47.7177 55.3003 47.6537 55.3573 47.5956C55.5061 47.4302 55.6635 47.2728 55.8289 47.124C56.3787 46.6342 57.0034 46.2356 57.6793 45.9432C58.0502 45.7808 58.4352 45.6525 58.8295 45.5598C59.1506 45.4664 59.487 45.437 59.8195 45.4734C60.0453 45.5043 60.257 45.6014 60.4279 45.7524C60.4733 45.7931 60.5137 45.839 60.5485 45.8892C60.5773 45.9252 60.5881 45.945 60.5845 45.9468Z" fill="white"/>
<path d="M118.537 41.193C118.286 41.2536 118.028 41.2803 117.77 41.2722C117.468 41.2631 117.166 41.2258 116.87 41.1606C116.48 41.0688 116.097 40.9484 115.724 40.8006C115.308 40.644 114.865 40.4406 114.386 40.2408L113.639 39.9402C113.382 39.8376 113.11 39.7494 112.837 39.6486C111.635 39.2417 110.41 38.9081 109.168 38.6496C106.91 38.1796 104.618 37.8955 102.314 37.8C101.871 37.7766 101.471 37.7766 101.119 37.7676H100.219L99.6497 37.7802H99.45C99.4666 37.777 99.4837 37.777 99.5004 37.7802L99.6479 37.7694L100.219 37.7388L101.119 37.7226C101.479 37.7226 101.871 37.7226 102.314 37.7442C104.624 37.8196 106.924 38.0967 109.186 38.5722C110.431 38.8278 111.658 39.1621 112.86 39.573C113.134 39.6738 113.4 39.7638 113.665 39.8682L114.412 40.176C114.89 40.383 115.331 40.5846 115.744 40.7448C116.111 40.8931 116.49 41.0134 116.876 41.1048C117.168 41.1747 117.465 41.2169 117.765 41.2308C117.954 41.2373 118.144 41.2307 118.332 41.211L118.478 41.193H118.537Z" fill="#263238"/>
<path d="M31.9338 41.4414C31.2138 37.503 30.7296 36.8982 30.3228 35.5428C29.916 34.1874 29.2698 33.3072 28.4652 32.9958C27.9252 32.787 25.2126 31.8096 24.2694 32.1336C23.3466 32.4617 22.4681 32.9031 21.654 33.4476C21.0223 33.8666 20.5435 34.4793 20.2896 35.1936L18.8496 39.2562L21.384 41.7762L22.6548 39.0762L24.0336 42.3162L23.8302 45.5832L31.7376 47.7108C32.4504 46.5588 32.3424 43.6752 31.9338 41.4414Z" fill="#FF725E"/>
<g opacity="0.2">
<path d="M29.88 37.1448C29.5308 39.195 29.475 39.4848 29.1258 41.5278C29.0052 42.2316 28.6542 43.3278 28.1538 43.839C27.783 44.2152 27.4194 44.577 26.9028 44.6994C26.424 44.8128 25.695 44.8254 25.245 44.6274C24.795 44.4294 24.4098 43.5474 24.5952 43.0956C25.2666 43.2396 25.4736 43.4556 26.0514 43.0956C26.5554 42.7752 27.2718 42.066 27.5454 41.535C28.6992 39.303 29.0178 39.2238 29.8854 37.1448" fill="black"/>
</g>
<path d="M24.1508 41.1174C24.0229 40.9451 23.9062 40.7647 23.8016 40.5774L22.988 39.24L22.1528 37.9242C22.0282 37.7472 21.9158 37.562 21.8162 37.3698C21.8595 37.4092 21.8976 37.454 21.9296 37.503C21.998 37.5912 22.0934 37.7226 22.2068 37.8864C22.4372 38.214 22.7468 38.673 23.0672 39.1896C23.3876 39.7062 23.6666 40.185 23.8592 40.536C23.9564 40.716 24.0392 40.8528 24.0824 40.9536C24.1136 41.0043 24.1366 41.0596 24.1508 41.1174Z" fill="#263238"/>
<path d="M29.6696 44.7948C29.6123 44.8246 29.5519 44.8481 29.4896 44.865C29.4158 44.8897 29.3407 44.9101 29.2646 44.9262C29.1651 44.9532 29.0641 44.9742 28.9622 44.9892C28.6983 45.0361 28.431 45.0608 28.163 45.063C27.8341 45.0636 27.5059 45.0353 27.182 44.9784C26.8584 44.9175 26.5409 44.8277 26.2334 44.7102C25.9845 44.613 25.7438 44.4962 25.5134 44.361C25.4126 44.3052 25.3334 44.244 25.2542 44.1954C25.1886 44.1528 25.1255 44.1065 25.0652 44.0568C25.0103 44.0191 24.9601 43.975 24.9158 43.9254C24.9266 43.911 25.1498 44.0856 25.5458 44.3034C25.7779 44.4285 26.0185 44.5374 26.2658 44.6292C26.8734 44.8557 27.5163 44.9733 28.1648 44.9766C28.429 44.9769 28.693 44.9595 28.955 44.9244C29.3942 44.8614 29.6642 44.7768 29.6696 44.7948Z" fill="#263238"/>
<path d="M26.4961 38.6586C26.4817 38.7288 25.6321 40.4208 25.6321 40.4208L21.6217 38.3076L21.2131 36.5796C21.1456 36.3021 20.9711 36.0626 20.7275 35.9135C20.484 35.7644 20.1913 35.7179 19.9135 35.784L18.7309 36.2682C18.6821 36.2873 18.6388 36.3181 18.6049 36.358C18.571 36.3979 18.5475 36.4456 18.5365 36.4968C18.5203 36.5832 18.5365 36.6768 18.6931 36.657C18.9865 36.6336 19.5931 36.5688 19.5931 36.5688L19.3141 37.5534C19.2404 37.8114 19.2688 38.0879 19.3933 38.3256L19.5733 38.6658L19.9639 39.2976H19.9549C19.9549 39.2976 23.8537 43.3026 26.0425 43.5636C27.3583 43.7202 28.8487 40.032 28.8487 40.032L26.4961 38.6586Z" fill="#B78876"/>
<path d="M19.5642 36.6354C19.5642 36.6354 19.5948 36.594 19.6614 36.549C19.7506 36.4869 19.8569 36.4542 19.9656 36.4554C20.0223 36.4586 20.0772 36.477 20.1244 36.5087C20.1716 36.5403 20.2094 36.5841 20.2338 36.6354C20.2716 36.7164 20.2464 36.7704 20.2338 36.7668C20.2212 36.7632 20.2338 36.7164 20.1906 36.6552C20.1641 36.6164 20.129 36.584 20.0882 36.5606C20.0474 36.5373 20.0018 36.5234 19.9548 36.5202C19.8574 36.5216 19.7617 36.5463 19.6758 36.5922C19.62 36.6192 19.5696 36.6426 19.5642 36.6354Z" fill="#AA6550"/>
<path d="M20.07 37.2492C20.07 37.2492 20.043 37.2168 20.0052 37.1682C19.9569 37.1062 19.8929 37.0583 19.8197 37.0295C19.7466 37.0006 19.6671 36.992 19.5894 37.0044C19.5282 37.0044 19.4904 37.026 19.4868 37.0188C19.4832 37.0116 19.5156 36.9846 19.5804 36.963C19.6661 36.938 19.7576 36.9421 19.8407 36.9747C19.9237 37.0072 19.9936 37.0664 20.0394 37.143C20.0718 37.2042 20.0754 37.2474 20.07 37.2492Z" fill="#AA6550"/>
<path d="M27.3278 33.318L26.2478 38.4642L29.1278 40.194L30.233 37.0314C30.233 37.0314 29.7686 33.1902 27.3278 33.318Z" fill="#FF725E"/>
<path d="M28.8793 33.408C28.8793 33.408 28.8559 33.4278 28.8055 33.4548C28.7551 33.4818 28.6831 33.5214 28.5877 33.57C28.3969 33.6672 28.1161 33.804 27.7651 33.9606C26.8526 34.3778 25.8918 34.6801 24.9049 34.8606C23.9117 35.0381 22.8923 35.0037 21.9133 34.7598C21.6203 34.6828 21.3348 34.5798 21.0601 34.452C20.9611 34.4106 20.8801 34.3656 20.8387 34.3404C20.8129 34.3275 20.7882 34.3125 20.7649 34.2954C20.8703 34.3311 20.9737 34.3725 21.0745 34.4196C21.3542 34.5326 21.6418 34.6253 21.9349 34.6968C22.9065 34.9192 23.9129 34.9437 24.8941 34.7688C25.8745 34.5883 26.831 34.2967 27.7453 33.8994C28.1053 33.7518 28.3807 33.624 28.5769 33.5394C28.6747 33.489 28.7757 33.4451 28.8793 33.408Z" fill="#EBEBEB"/>
<path d="M29.6372 33.9768C29.6125 33.9991 29.5853 34.0184 29.5562 34.0344L29.3186 34.1874C29.193 34.2697 29.0632 34.3454 28.9298 34.4142C28.775 34.4952 28.6022 34.5942 28.3988 34.6842L28.0856 34.8282C27.9758 34.8786 27.857 34.92 27.7364 34.9686C27.497 35.0676 27.2306 35.1486 26.9534 35.2386C25.738 35.6052 24.4677 35.7557 23.2004 35.6832C22.9088 35.6598 22.6316 35.6436 22.376 35.6022C22.2464 35.5824 22.1222 35.5698 22.0034 35.5482L21.6632 35.4798C21.4472 35.442 21.2546 35.3844 21.0854 35.3412C20.9399 35.3061 20.7963 35.2634 20.6552 35.2134L20.387 35.1198C20.3549 35.1113 20.324 35.0986 20.2952 35.082C20.3284 35.0838 20.3611 35.0905 20.3924 35.1018L20.666 35.1774C20.783 35.2134 20.927 35.2548 21.098 35.2908C21.269 35.3268 21.458 35.3826 21.6776 35.415L22.016 35.4762C22.133 35.4978 22.2572 35.5086 22.376 35.5248C22.6316 35.5626 22.916 35.577 23.195 35.5968C24.4529 35.6608 25.7127 35.5117 26.921 35.1558C27.1964 35.0694 27.461 34.992 27.7004 34.8948C27.8192 34.848 27.938 34.8084 28.0478 34.7616L28.3628 34.623C28.5662 34.5402 28.739 34.443 28.9028 34.3674C29.0666 34.2918 29.1926 34.218 29.297 34.1568L29.5454 34.02C29.5739 34.0016 29.6048 33.987 29.6372 33.9768Z" fill="#EBEBEB"/>
<path d="M29.1205 40.194C29.0398 40.1599 28.9616 40.1202 28.8865 40.0752L28.2529 39.7152L26.0929 38.4678L26.0659 38.4516V38.421C26.1433 38.0376 26.2261 37.6236 26.3125 37.1988C26.4421 36.558 26.5681 35.9496 26.6725 35.3988C26.7319 35.1216 26.7805 34.8588 26.8345 34.6086C26.8834 34.3773 26.9607 34.153 27.0649 33.9408C27.2158 33.6256 27.4829 33.3811 27.8101 33.2586C27.8987 33.2281 27.9918 33.2129 28.0855 33.2136C28.1177 33.2114 28.15 33.215 28.1809 33.2244C28.0581 33.2285 27.9367 33.2516 27.8209 33.2928C27.5117 33.4232 27.2626 33.6646 27.1225 33.9696C27.0252 34.1793 26.9533 34.3998 26.9083 34.6266C26.8597 34.8732 26.8093 35.1378 26.7553 35.4132C26.6437 35.9712 26.5213 36.5796 26.3953 37.2132C26.3089 37.6398 26.2243 38.052 26.1469 38.4354L26.1253 38.3886L28.2727 39.6648L28.8937 40.0428C28.9734 40.0868 29.0493 40.1373 29.1205 40.194Z" fill="#263238"/>
<path d="M30.0008 36.8784C30.0166 37.0386 30.0118 37.2001 29.9864 37.359C29.9487 37.7437 29.88 38.1247 29.7812 38.4984C29.6823 38.8725 29.5548 39.2384 29.3996 39.5928C29.3432 39.7435 29.2676 39.8863 29.1746 40.0176C29.2186 39.864 29.2733 39.7136 29.3384 39.5676C29.6116 38.8514 29.8071 38.108 29.9216 37.35C29.9379 37.1913 29.9644 37.0338 30.0008 36.8784Z" fill="#263238"/>
<path d="M14.3857 65.5038L14.3533 68.2506C14.3533 68.2506 11.5489 69.1416 11.4949 69.6492L16.8193 69.9012L17.0461 65.6226L14.3857 65.5038Z" fill="#455A64"/>
<path d="M16.0202 68.0976C16.0707 68.1157 16.1128 68.1517 16.1384 68.1989C16.1639 68.2461 16.1712 68.301 16.1588 68.3532C16.1429 68.4045 16.1078 68.4478 16.0609 68.4739C16.014 68.5001 15.9588 68.5071 15.9068 68.4936C15.8534 68.474 15.8091 68.4355 15.7822 68.3854C15.7553 68.3353 15.7478 68.2771 15.761 68.2218C15.7836 68.1703 15.8253 68.1295 15.8773 68.108C15.9293 68.0866 15.9876 68.086 16.04 68.1066" fill="#E0E0E0"/>
<path d="M16.8193 69.9012V69.4692L11.7109 69.3882C11.7109 69.3882 11.4679 69.48 11.4877 69.6492L16.8193 69.9012Z" fill="#E0E0E0"/>
<path d="M14.2687 68.22C14.2687 68.2452 14.3983 68.2632 14.5207 68.3532C14.6431 68.4432 14.7007 68.5548 14.7331 68.5458C14.7655 68.5368 14.7331 68.3856 14.5729 68.2794C14.4127 68.1732 14.2633 68.1948 14.2687 68.22Z" fill="#263238"/>
<path d="M13.698 68.4234C13.698 68.4486 13.8024 68.499 13.878 68.6124C13.9536 68.7258 13.9806 68.8446 14.0076 68.8446C14.0346 68.8446 14.0562 68.6988 13.95 68.5584C13.8438 68.418 13.6998 68.4 13.698 68.4234Z" fill="#263238"/>
<path d="M13.3489 69.0768C13.3723 69.0768 13.4155 68.9562 13.3489 68.8104C13.2823 68.6646 13.1689 68.6034 13.1581 68.6304C13.1473 68.6574 13.2175 68.7312 13.2643 68.8518C13.3111 68.9724 13.3201 69.0732 13.3489 69.0768Z" fill="#263238"/>
<path d="M14.3444 67.5936C14.3552 67.6188 14.4758 67.5936 14.6234 67.6044C14.771 67.6152 14.8808 67.6746 14.8952 67.653C14.9096 67.6314 14.8052 67.5324 14.6324 67.5144C14.4596 67.4964 14.3336 67.5738 14.3444 67.5936Z" fill="#263238"/>
<g opacity="0.3">
<path d="M14.3802 66.0474L14.373 66.537L16.992 66.6378L17.0154 66.1968L14.3802 66.0474Z" fill="black"/>
</g>
<path d="M14.3623 67.0392C14.4483 67.0678 14.5404 67.0721 14.6287 67.0518C14.7256 67.0392 14.8206 67.0144 14.9113 66.978C14.9655 66.9579 15.0179 66.9332 15.0679 66.9042C15.099 66.8896 15.1276 66.8702 15.1525 66.8466C15.1706 66.8288 15.1821 66.8055 15.1854 66.7804C15.1887 66.7553 15.1834 66.7298 15.1705 66.708C15.1581 66.6893 15.1416 66.6738 15.1223 66.6626C15.1029 66.6513 15.0812 66.6447 15.0589 66.6432C15.025 66.6414 14.9911 66.6445 14.9581 66.6522C14.9009 66.6632 14.8449 66.6795 14.7907 66.7008C14.6991 66.7376 14.6135 66.7879 14.5369 66.8502C14.4073 66.96 14.3569 67.0554 14.3695 67.0608C14.3821 67.0662 14.4451 66.9906 14.5747 66.9024C14.6509 66.8516 14.7332 66.8105 14.8195 66.78C14.87 66.7628 14.9218 66.7495 14.9743 66.7404C15.0319 66.7278 15.0805 66.7296 15.0931 66.7548C15.1057 66.78 15.0931 66.7692 15.0931 66.7854C15.0745 66.8021 15.0539 66.8166 15.0319 66.8286C14.9833 66.8556 14.9347 66.8808 14.8879 66.9024C14.8031 66.9391 14.7151 66.968 14.6251 66.9888C14.5365 66.9999 14.4487 67.0167 14.3623 67.0392Z" fill="#263238"/>
<path d="M14.4002 67.0788C14.4537 67.0051 14.4821 66.9161 14.4812 66.825C14.4912 66.7267 14.4839 66.6274 14.4596 66.5316C14.4451 66.4744 14.4246 66.4189 14.3984 66.366C14.3857 66.3301 14.364 66.2982 14.3353 66.2732C14.3066 66.2483 14.2719 66.2313 14.2346 66.2238C14.2111 66.2229 14.1878 66.2289 14.1677 66.241C14.1475 66.2532 14.1314 66.271 14.1212 66.2922C14.1053 66.3227 14.0944 66.3555 14.0888 66.3894C14.0798 66.449 14.0798 66.5097 14.0888 66.5694C14.0986 66.6699 14.1333 66.7664 14.1896 66.8502C14.2868 66.9942 14.3948 67.0302 14.3966 67.0212C14.3984 67.0122 14.3174 66.9546 14.2436 66.8178C14.2014 66.7394 14.1768 66.6528 14.1716 66.564C14.1687 66.512 14.1729 66.46 14.1842 66.4092C14.195 66.3534 14.2184 66.3084 14.24 66.3156C14.2616 66.3228 14.3084 66.3606 14.3282 66.4074C14.3526 66.4546 14.3725 66.504 14.3876 66.555C14.4134 66.6421 14.4268 66.7324 14.4272 66.8232C14.4128 66.978 14.3804 67.0734 14.4002 67.0788Z" fill="#263238"/>
<path d="M25.2398 45.612C25.2398 45.612 16.9202 42.12 14.3462 41.9742C12.7262 41.8806 11.5094 42.9174 11.729 44.5878C11.8388 45.4248 14.1374 55.2078 14.1374 55.2078L17.6402 53.6094L15.9554 46.8432L22.7954 50.166L25.2398 45.612Z" fill="#263238"/>
<path d="M14.9095 45.1314C14.8825 45.1548 15.1579 45.5094 15.4495 45.9792C15.7411 46.449 15.9355 46.854 15.9679 46.8414C16.0003 46.8288 15.8509 46.395 15.5539 45.9162C15.2569 45.4374 14.9401 45.1098 14.9095 45.1314Z" fill="#455A64"/>
<path d="M14.2291 45.5202C14.2111 45.5508 14.6305 45.8172 15.1291 46.1808C15.6277 46.5444 16.0021 46.863 16.0291 46.8378C16.0561 46.8126 15.6961 46.44 15.1957 46.08C14.6953 45.72 14.2435 45.4914 14.2291 45.5202Z" fill="#455A64"/>
<path d="M31.7286 47.7108C31.7286 47.7108 30.6828 49.059 29.6856 49.428C28.4256 49.8906 19.1628 54.2628 19.1628 54.2628C19.1628 54.2628 17.4816 66.753 17.6148 66.231L13.7358 66.1374L14.157 54.6336C14.2074 53.1612 15.3882 51.4692 16.6572 50.7168L25.2396 45.612L31.7286 47.7108Z" fill="#263238"/>
<path d="M14.0832 56.7396C14.0955 56.6878 14.101 56.6345 14.0994 56.5812C14.0994 56.466 14.1138 56.3166 14.1228 56.1294C14.1449 55.5757 14.1965 55.0235 14.2776 54.4752C14.3912 53.665 14.6786 52.8889 15.12 52.2C15.3932 51.804 15.7301 51.4561 16.1172 51.1704C16.5373 50.8644 16.9768 50.586 17.433 50.337C19.2996 49.2678 20.9106 48.177 22.1022 47.43C22.6962 47.052 23.1822 46.7514 23.5134 46.5462L23.8986 46.3086C23.9452 46.2829 23.9892 46.2528 24.03 46.2186C23.9804 46.2366 23.9328 46.2595 23.8878 46.287C23.796 46.3356 23.661 46.4076 23.49 46.5048C23.1462 46.6974 22.6566 46.989 22.05 47.3562C20.8458 48.087 19.2258 49.1652 17.37 50.2362C16.9091 50.4881 16.4653 50.7701 16.0416 51.0804C15.6448 51.3748 15.3004 51.7338 15.0228 52.1424C14.5788 52.8493 14.2955 53.645 14.193 54.4734C14.1189 55.0254 14.0804 55.5815 14.0778 56.1384C14.0778 56.3184 14.0778 56.475 14.0778 56.592C14.0752 56.6413 14.077 56.6907 14.0832 56.7396Z" fill="#455A64"/>
<path d="M28.3051 49.0266C28.2333 48.9151 28.1539 48.8087 28.0675 48.708C27.8887 48.448 27.7646 48.1544 27.7027 47.845C27.6409 47.5355 27.6425 47.2168 27.7075 46.908C27.7475 46.7813 27.7788 46.652 27.8011 46.521C27.7137 46.6252 27.6521 46.7485 27.6211 46.881C27.529 47.2006 27.5154 47.5378 27.5815 47.8638C27.6461 48.1898 27.7895 48.4951 27.9991 48.753C28.1629 48.96 28.2979 49.0374 28.3051 49.0266Z" fill="#455A64"/>
<path d="M15.1615 66.1374C15.1678 66.1169 15.1715 66.0958 15.1723 66.0744C15.1723 66.024 15.1867 65.9628 15.1957 65.8854C15.2155 65.7054 15.2407 65.4678 15.2731 65.1654C15.3361 64.5246 15.4261 63.612 15.5377 62.4888C15.5899 61.9236 15.6493 61.3044 15.7177 60.6402C15.7861 59.976 15.8491 59.265 15.8977 58.5162C15.9463 57.7674 16.0255 56.9844 16.1623 56.1762C16.2959 55.3471 16.5379 54.5391 16.8823 53.7732C17.2419 53.0163 17.7167 52.3198 18.2899 51.7086C18.8269 51.14 19.415 50.6218 20.0467 50.1606C21.1293 49.3982 22.2536 48.6969 23.4145 48.06C24.3991 47.4948 25.1839 47.0124 25.7041 46.6488C25.9669 46.4688 26.1649 46.323 26.2981 46.2204L26.4475 46.1034C26.4811 46.077 26.4973 46.0626 26.4961 46.0602C26.476 46.0683 26.4573 46.0792 26.4403 46.0926L26.2837 46.2006C26.1469 46.296 25.9435 46.4364 25.6789 46.611C25.1497 46.9602 24.3613 47.43 23.3713 47.9862C22.2009 48.6138 21.0686 49.3098 19.9801 50.0706C19.34 50.5329 18.7446 51.0542 18.2017 51.6276C17.6183 52.247 17.1354 52.954 16.7707 53.7228C16.4249 54.4982 16.1828 55.3159 16.0507 56.1546C15.9157 56.9646 15.8473 57.7512 15.7915 58.4946C15.7357 59.238 15.6799 59.9544 15.6115 60.6186C15.5431 61.2828 15.4999 61.902 15.4513 62.469C15.3559 63.594 15.2713 64.5066 15.2263 65.1492C15.2023 65.4588 15.1843 65.6988 15.1723 65.8692C15.1723 65.9466 15.1633 66.0096 15.1597 66.0582C15.1561 66.1068 15.1579 66.1374 15.1615 66.1374Z" fill="#455A64"/>
<path d="M24.3001 25.8012C24.1694 25.4648 23.9232 25.186 23.6055 25.0147C23.2878 24.8435 22.9195 24.7912 22.5667 24.867C22.4114 24.9238 22.2491 24.9589 22.0843 24.9714C21.8845 24.9372 21.6881 24.8854 21.4975 24.8166C21.2814 24.7816 21.0601 24.8281 20.8764 24.9472C20.6928 25.0663 20.56 25.2495 20.5039 25.461C20.3348 25.4199 20.1588 25.4162 19.9881 25.4501C19.8174 25.484 19.6562 25.5546 19.5157 25.6572C19.3778 25.7639 19.28 25.914 19.2378 26.0831C19.1957 26.2523 19.2118 26.4307 19.2835 26.5896C19.3537 26.721 19.4635 26.8254 19.5337 26.9604C19.6399 27.1818 19.5913 27.4482 19.6651 27.6804C19.7343 27.8493 19.8497 27.9952 19.9981 28.1015C20.1464 28.2078 20.3217 28.2702 20.5039 28.2816C20.8704 28.3004 21.237 28.2485 21.5839 28.1286" fill="#263238"/>
<path d="M22.6243 32.9202C22.5793 32.571 22.5505 32.3262 22.5505 32.3262C22.5505 32.3262 21.3895 32.3262 20.9305 30.8862C20.6983 30.1662 20.5435 28.9638 20.4499 27.9702C20.4295 27.7585 20.4521 27.5449 20.5164 27.3422C20.5807 27.1395 20.6854 26.952 20.8242 26.7908C20.9629 26.6297 21.1329 26.4983 21.3238 26.4047C21.5147 26.311 21.7226 26.2569 21.9349 26.2458L25.0165 26.0856L25.0831 26.5626L25.8949 32.4882C25.9243 32.703 25.9109 32.9215 25.8555 33.1312C25.8001 33.3408 25.7038 33.5374 25.5722 33.7097C25.4405 33.882 25.2761 34.0266 25.0884 34.1351C24.9007 34.2437 24.6933 34.314 24.4783 34.3422C24.2632 34.371 24.0444 34.357 23.8347 34.3011C23.6249 34.2452 23.4282 34.1484 23.256 34.0163C23.0837 33.8841 22.9392 33.7193 22.8309 33.5312C22.7225 33.3431 22.6523 33.1355 22.6243 32.9202Z" fill="#B78876"/>
<path d="M20.88 28.818C20.8876 28.8673 20.914 28.9116 20.9536 28.9418C20.9932 28.972 21.0429 28.9857 21.0924 28.98C21.1169 28.9785 21.1408 28.972 21.1627 28.9608C21.1846 28.9497 21.204 28.9342 21.2196 28.9154C21.2353 28.8965 21.247 28.8746 21.2539 28.851C21.2608 28.8275 21.2628 28.8028 21.2598 28.7784C21.2531 28.7288 21.227 28.6838 21.1871 28.6535C21.1473 28.6231 21.097 28.6098 21.0474 28.6164C21.0229 28.618 20.999 28.6245 20.9771 28.6356C20.9552 28.6467 20.9359 28.6622 20.9202 28.6811C20.9045 28.7 20.8928 28.7219 20.8859 28.7454C20.879 28.769 20.877 28.7937 20.88 28.818Z" fill="#263238"/>
<path d="M20.8008 28.5516C20.8278 28.5714 20.9538 28.4436 21.1608 28.4112C21.3678 28.3788 21.5208 28.458 21.5478 28.4292C21.5748 28.4004 21.5262 28.3752 21.4542 28.3392C21.3566 28.2913 21.2463 28.2755 21.1392 28.2942C21.0332 28.31 20.9353 28.3599 20.8602 28.4364C20.8008 28.494 20.7864 28.5426 20.8008 28.5516Z" fill="#263238"/>
<path d="M22.8097 28.4904C22.8173 28.5395 22.8437 28.5837 22.8834 28.6136C22.923 28.6435 22.9728 28.6568 23.0221 28.6506C23.0466 28.6493 23.0705 28.643 23.0925 28.6321C23.1144 28.6212 23.1339 28.6059 23.1498 28.5872C23.1656 28.5685 23.1775 28.5467 23.1846 28.5233C23.1917 28.4998 23.194 28.4752 23.1913 28.4508C23.1837 28.4016 23.1573 28.3572 23.1177 28.327C23.0781 28.2968 23.0284 28.2831 22.9789 28.2888C22.9542 28.2901 22.9301 28.2965 22.908 28.3075C22.8859 28.3185 22.8663 28.3339 22.8505 28.3528C22.8346 28.3717 22.8228 28.3937 22.8158 28.4174C22.8088 28.441 22.8067 28.4659 22.8097 28.4904Z" fill="#263238"/>
<path d="M22.8062 28.2708C22.8332 28.2924 22.9592 28.1628 23.1662 28.1322C23.3732 28.1016 23.5262 28.1772 23.5532 28.1484C23.5802 28.1196 23.5316 28.0962 23.4596 28.0584C23.3615 28.0121 23.2517 27.9965 23.1446 28.0134C23.039 28.0305 22.9414 28.0802 22.8656 28.1556C22.8062 28.2132 22.7936 28.26 22.8062 28.2708Z" fill="#263238"/>
<path d="M22.3075 29.898C22.1946 29.8828 22.0801 29.8828 21.9673 29.898C21.9151 29.898 21.8647 29.898 21.8503 29.8638C21.8337 29.8117 21.8337 29.7557 21.8503 29.7036C21.8791 29.5704 21.9097 29.43 21.9421 29.2842C22.0299 28.9264 22.0901 28.5623 22.1221 28.1952C22.0041 28.5475 21.9144 28.9086 21.8539 29.2752C21.8251 29.4228 21.7963 29.5632 21.7711 29.6982C21.7459 29.7649 21.7459 29.8385 21.7711 29.9052C21.7816 29.9222 21.7957 29.9367 21.8126 29.9476C21.8294 29.9585 21.8484 29.9656 21.8683 29.9682C21.8981 29.972 21.9284 29.972 21.9583 29.9682C22.0772 29.9597 22.1945 29.9361 22.3075 29.898Z" fill="#263238"/>
<path d="M22.5505 32.3262C23.2462 32.2263 23.9005 31.9353 24.4405 31.4856C24.4405 31.4856 24.1201 32.58 22.6243 32.6718L22.5505 32.3262Z" fill="#AA6550"/>
<path d="M22.9284 29.943C22.8942 29.943 22.9284 30.1662 22.7664 30.3534C22.6044 30.5406 22.3632 30.5532 22.365 30.5838C22.3668 30.6144 22.4244 30.6198 22.5252 30.6054C22.6549 30.5879 22.7739 30.524 22.86 30.4254C22.9443 30.332 22.9883 30.2091 22.9824 30.0834C22.977 29.9898 22.9428 29.9394 22.9284 29.943Z" fill="#263238"/>
<path d="M22.6262 27.4824C22.655 27.5346 22.8548 27.4824 23.0978 27.4662C23.3408 27.45 23.5442 27.4914 23.5676 27.4374C23.591 27.3834 23.537 27.3654 23.4506 27.324C23.336 27.274 23.2114 27.2511 23.0866 27.257C22.9617 27.263 22.8399 27.2976 22.7306 27.3582C22.6514 27.4068 22.6136 27.4572 22.6262 27.4824Z" fill="#263238"/>
<path d="M20.7811 27.9504C20.8243 27.99 20.9611 27.9198 21.1249 27.891C21.2887 27.8622 21.4417 27.873 21.4669 27.819C21.4777 27.7938 21.4471 27.7506 21.3787 27.7182C21.2866 27.6773 21.1841 27.6659 21.0853 27.6858C20.9867 27.7032 20.8961 27.751 20.8261 27.8226C20.7739 27.8802 20.7613 27.9306 20.7811 27.9504Z" fill="#263238"/>
<path d="M20.2879 27.3204C20.2879 27.3204 21.1033 27.5958 22.0393 26.9694C22.6531 26.559 23.3983 26.3016 23.5837 26.4132C23.7691 26.5248 23.8897 27.1944 24.5647 27.3132C24.5647 27.3132 24.6835 28.6092 25.1929 28.4976C25.5529 28.4184 25.3441 26.9892 25.1929 26.1738C25.1613 26.0162 25.0778 25.8736 24.9558 25.7689C24.8338 25.6642 24.6803 25.6033 24.5197 25.596L23.5711 25.5582L22.3867 25.8894L21.1159 26.235L20.1475 26.64L20.2879 27.3204Z" fill="#263238"/>
<path d="M25.0796 27.9702C25.0976 27.9576 25.8842 27.5436 26.03 28.4022C26.1758 29.2608 25.2848 29.2284 25.2776 29.205C25.2704 29.1816 25.0796 27.9702 25.0796 27.9702Z" fill="#B78876"/>
<path d="M25.4844 28.8342C25.4844 28.8342 25.5024 28.8432 25.5294 28.8504C25.5673 28.8594 25.6072 28.8536 25.641 28.8342C25.69 28.7895 25.7264 28.7327 25.7466 28.6695C25.7668 28.6064 25.7701 28.539 25.7562 28.4742C25.7458 28.4004 25.7194 28.3297 25.6788 28.2672C25.6658 28.2419 25.6469 28.2201 25.6237 28.2035C25.6006 28.1869 25.5738 28.176 25.5456 28.1718C25.5277 28.1703 25.5099 28.175 25.4951 28.1852C25.4803 28.1954 25.4696 28.2104 25.4646 28.2276C25.4646 28.2528 25.4646 28.269 25.4646 28.2726C25.4646 28.2762 25.4448 28.26 25.4448 28.224C25.4464 28.2019 25.4552 28.181 25.47 28.1646C25.4908 28.1429 25.5192 28.13 25.5492 28.1286C25.5858 28.1293 25.6217 28.1394 25.6532 28.158C25.6847 28.1766 25.7109 28.2031 25.7292 28.2348C25.7785 28.3028 25.81 28.382 25.821 28.4652C25.8389 28.541 25.8337 28.6204 25.8061 28.6932C25.7785 28.766 25.7298 28.8289 25.6662 28.8738C25.6443 28.8842 25.6203 28.8896 25.596 28.8896C25.5717 28.8896 25.5478 28.8842 25.5258 28.8738C25.4898 28.8558 25.4826 28.8378 25.4844 28.8342Z" fill="#AA6550"/>
<path d="M20.7002 25.1442C20.7002 25.1442 20.729 25.191 20.7902 25.2594C20.8778 25.3564 20.9896 25.4284 21.1142 25.4682C21.2992 25.528 21.497 25.5367 21.6866 25.4934C21.9223 25.4361 22.1539 25.3627 22.3796 25.2738C22.6133 25.1818 22.8629 25.1371 23.114 25.1424C23.3263 25.1501 23.5273 25.2405 23.6738 25.3944C23.7736 25.4948 23.8342 25.6276 23.8448 25.7688C23.8523 25.82 23.8435 25.8723 23.8196 25.9182C23.8106 25.9182 23.8196 25.8642 23.8088 25.7724C23.7863 25.6449 23.7232 25.528 23.6288 25.4394C23.4901 25.3065 23.3061 25.2312 23.114 25.2288C22.8743 25.229 22.6368 25.2742 22.4138 25.362C22.1843 25.4533 21.9477 25.5255 21.7064 25.578C21.5026 25.6201 21.2911 25.6039 21.0962 25.5312C20.9639 25.4826 20.8487 25.3962 20.765 25.2828C20.7002 25.2 20.7002 25.146 20.7002 25.1442Z" fill="#455A64"/>
<path d="M23.5998 25.9668C23.5998 25.9668 23.5566 25.9218 23.4666 25.8588C23.3382 25.7802 23.1905 25.7391 23.04 25.74C22.8118 25.7391 22.5869 25.7941 22.3848 25.9002C22.1323 26.0366 21.8714 26.1568 21.6036 26.2602C21.3496 26.339 21.0821 26.3648 20.8176 26.3361C20.5532 26.3073 20.2975 26.2245 20.0664 26.0928C19.9266 26.0141 19.7987 25.9159 19.6866 25.8012C19.643 25.7622 19.6064 25.7159 19.5786 25.6644C19.738 25.8052 19.9117 25.9289 20.097 26.0334C20.5522 26.2723 21.0832 26.3221 21.5748 26.172C21.8388 26.0652 22.0971 25.945 22.3488 25.812C22.5637 25.7033 22.8031 25.6524 23.0436 25.6644C23.207 25.6706 23.3644 25.7279 23.4936 25.8282C23.5408 25.864 23.5775 25.9119 23.5998 25.9668Z" fill="#455A64"/>
<path d="M20.9341 40.5936L16.7545 37.0314L15.3757 37.3428C15.3757 37.3428 16.8283 40.3632 17.8795 41.4702C17.8795 41.4702 18.9181 42.8598 20.6317 42.2586C22.3453 41.6574 20.9341 40.5936 20.9341 40.5936Z" fill="#B78876"/>
<path d="M16.4378 33.1074H14.6612C14.5942 33.1111 14.5288 33.1296 14.4698 33.1617C14.4108 33.1938 14.3597 33.2386 14.3202 33.2929C14.2808 33.3472 14.2539 33.4096 14.2416 33.4756C14.2292 33.5416 14.2318 33.6095 14.249 33.6744L16.0364 37.1538C16.0703 37.2201 16.1219 37.2757 16.1854 37.3144C16.2489 37.3532 16.322 37.3736 16.3964 37.3734H18.5564C18.6072 37.3678 18.6558 37.3496 18.6978 37.3206C18.7399 37.2916 18.7741 37.2527 18.7975 37.2072C18.8208 37.1618 18.8326 37.1112 18.8316 37.0601C18.8307 37.0091 18.8172 36.959 18.7922 36.9144L17.0696 33.507C17.011 33.389 16.921 33.2893 16.8096 33.2188C16.6982 33.1483 16.5696 33.1098 16.4378 33.1074Z" fill="#455A64"/>
<path d="M16.3189 33.318H14.5423C14.4913 33.3177 14.4411 33.3305 14.3965 33.3552C14.3519 33.3799 14.3144 33.4157 14.2876 33.4591C14.2608 33.5025 14.2457 33.5521 14.2436 33.603C14.2416 33.654 14.2527 33.7046 14.2759 33.75L16.0201 37.1538C16.0543 37.2198 16.1059 37.2752 16.1694 37.3139C16.2329 37.3526 16.3057 37.3732 16.3801 37.3734H18.5221C18.5515 37.3722 18.5801 37.3637 18.6055 37.3489C18.6309 37.334 18.6523 37.3131 18.6677 37.2881C18.6832 37.263 18.6923 37.2346 18.6942 37.2052C18.6961 37.1758 18.6908 37.1464 18.6787 37.1196L16.9543 33.714C16.896 33.5952 16.8056 33.4951 16.6932 33.425C16.5809 33.355 16.4512 33.318 16.3189 33.318Z" fill="#263238"/>
<path d="M16.1678 34.74L15.0878 35.172L14.8574 36.0432L15.3776 37.3392L17.2802 37.62L16.7222 37.0494L16.7924 36.5508C16.7924 36.5508 17.3324 36.3834 17.3324 36.3024C17.3324 36.2214 17.2658 35.9424 17.1848 35.9334C16.9717 35.982 16.7629 36.0477 16.5602 36.1296C16.5602 36.1296 17.2208 35.6058 17.2028 35.5212C17.1848 35.4366 17.1128 35.2224 16.9814 35.1972C16.85 35.172 15.7808 35.6778 15.7808 35.6778L15.6008 36.072L15.4496 35.4402C15.4496 35.4402 16.4018 35.1738 16.1678 34.74Z" fill="#B78876"/>
<path d="M16.3045 36.7848C16.3045 36.7848 16.2775 36.7488 16.2667 36.6768C16.2553 36.5851 16.2657 36.492 16.2969 36.4051C16.3282 36.3182 16.3795 36.2398 16.4467 36.1764C16.5007 36.1296 16.5421 36.1134 16.5457 36.1188C16.4635 36.2098 16.3961 36.313 16.3459 36.4248C16.3138 36.542 16.2999 36.6634 16.3045 36.7848Z" fill="#AA6550"/>
<path d="M15.7898 36.5958C15.8109 36.5027 15.8253 36.4083 15.833 36.3132C15.8374 36.2069 15.8555 36.1016 15.887 36C15.9076 35.9347 15.9435 35.8753 15.9917 35.8268C16.0399 35.7782 16.0991 35.742 16.1642 35.721C16.4216 35.6274 16.6556 35.5518 16.8248 35.496C16.9153 35.4618 17.0086 35.4359 17.1038 35.4186C17.02 35.4664 16.9313 35.505 16.8392 35.5338C16.6718 35.5986 16.4378 35.6814 16.184 35.7732C16.1247 35.7936 16.0706 35.8268 16.0256 35.8704C15.9856 35.9128 15.955 35.963 15.9356 36.018C15.9026 36.1153 15.8815 36.2162 15.8726 36.3186C15.8691 36.4165 15.8406 36.512 15.7898 36.5958Z" fill="#AA6550"/>
<path d="M15.5413 36.4014C15.5243 36.331 15.5243 36.2576 15.5413 36.1872C15.5611 36.072 15.5881 35.982 15.6043 35.9838C15.6212 36.0542 15.6212 36.1276 15.6043 36.198C15.5845 36.3132 15.5575 36.4032 15.5413 36.4014Z" fill="#AA6550"/>
<path d="M15.5125 33.975C15.5125 34.0198 15.5258 34.0637 15.5507 34.101C15.5756 34.1383 15.611 34.1673 15.6525 34.1845C15.6939 34.2017 15.7395 34.2062 15.7835 34.1974C15.8275 34.1887 15.8679 34.1671 15.8996 34.1353C15.9313 34.1036 15.9529 34.0632 15.9617 34.0192C15.9705 33.9752 15.966 33.9296 15.9488 33.8882C15.9316 33.8467 15.9026 33.8113 15.8653 33.7864C15.828 33.7615 15.7841 33.7482 15.7393 33.7482C15.7094 33.7479 15.6798 33.7536 15.6522 33.7649C15.6246 33.7763 15.5995 33.793 15.5784 33.8141C15.5572 33.8352 15.5405 33.8603 15.5292 33.8879C15.5179 33.9155 15.5122 33.9451 15.5125 33.975Z" fill="#FAFAFA"/>
<path d="M9.28791 68.2848C9.56985 68.3722 9.83124 68.5156 10.0564 68.7064C10.2816 68.8973 10.4659 69.1316 10.5983 69.3954C10.8607 69.9254 10.998 70.5086 10.9997 71.1C11.0357 72.2376 10.5641 73.4616 10.0079 74.457C8.94411 73.773 8.51931 72.36 8.34651 71.64C8.07651 70.4916 8.28351 68.2524 9.28791 68.283" fill="#FF725E"/>
<path d="M11.374 76.149C11.2631 75.8381 11.2363 75.5034 11.2964 75.1787C11.3565 74.8541 11.5012 74.5511 11.716 74.3004C11.9352 74.0538 12.2014 73.8533 12.4991 73.7108C12.7967 73.5683 13.1198 73.4867 13.4494 73.4706C13.7518 73.449 14.0902 73.4886 14.2972 73.7118C14.3882 73.8217 14.4482 73.9539 14.4709 74.0947C14.4937 74.2355 14.4785 74.3799 14.4268 74.5128C14.3192 74.7777 14.1435 75.0093 13.9174 75.1842C13.174 75.8178 12.3388 76.293 11.374 76.149Z" fill="#FF725E"/>
<path d="M10.6648 79.7617C10.6566 79.6839 10.6566 79.6054 10.6648 79.5277C10.6648 79.3603 10.6792 79.1461 10.6882 78.8887C10.6953 78.1796 10.8168 77.4763 11.0482 76.8061C11.2902 76.1345 11.7064 75.5393 12.2542 75.0817C12.4205 74.9473 12.6017 74.8325 12.7942 74.7397C12.8626 74.7055 12.9202 74.6893 12.9562 74.6731C12.9922 74.6569 13.0138 74.6533 13.0156 74.6569C12.5715 74.8765 12.1755 75.1821 11.8504 75.556C11.5254 75.9298 11.2778 76.3645 11.122 76.8348C10.8968 77.4985 10.7712 78.1918 10.7494 78.8923C10.7314 79.1605 10.7152 79.3783 10.7008 79.5294C10.6952 79.6077 10.6832 79.6854 10.6648 79.7617Z" fill="#263238"/>
<path d="M9.28063 70.0038C9.2914 70.0362 9.29982 70.0693 9.30583 70.1028C9.32143 70.1772 9.34123 70.2726 9.36523 70.389C9.41563 70.6374 9.48403 70.9992 9.56323 71.4456C9.72343 72.3456 9.92323 73.5786 10.1194 74.9502C10.3156 76.3218 10.4614 77.5674 10.555 78.471C10.6018 78.9228 10.636 79.2882 10.6576 79.542C10.666 79.662 10.6732 79.7592 10.6792 79.8336C10.6844 79.867 10.6844 79.901 10.6792 79.9344C10.6702 79.9014 10.6642 79.8677 10.6612 79.8336C10.6522 79.7598 10.6396 79.6644 10.6234 79.5438C10.591 79.2828 10.5478 78.921 10.4938 78.4782C10.3858 77.5782 10.2292 76.3326 10.0366 74.961C9.84403 73.5894 9.64963 72.36 9.50563 71.46C9.43363 71.019 9.37603 70.659 9.32563 70.398C9.30763 70.2792 9.29323 70.1838 9.28063 70.11C9.27592 70.0748 9.27592 70.0391 9.28063 70.0038Z" fill="#263238"/>
<path d="M9.84048 77.0688C9.62873 76.4071 9.26246 75.8054 8.77198 75.3133C8.28149 74.8213 7.6809 74.4531 7.01988 74.2392C6.68148 74.133 6.25668 74.0952 6.02988 74.367C5.80308 74.6388 5.92548 75.0528 6.10008 75.3606C6.47564 75.9965 7.03119 76.5068 7.69659 76.8272C8.36199 77.1476 9.10739 77.2636 9.83868 77.1606" fill="#FF725E"/>
<path d="M7.32044 75.2796C7.39284 75.2923 7.46393 75.3116 7.53284 75.3372C7.61559 75.3615 7.69674 75.391 7.77584 75.4254C7.86944 75.4668 7.97924 75.5028 8.09084 75.564C8.2142 75.6244 8.33436 75.691 8.45084 75.7638C8.58794 75.8463 8.72071 75.9359 8.84864 76.032C9.43769 76.4744 9.90977 77.054 10.2238 77.7204C10.2921 77.8651 10.3522 78.0136 10.4038 78.165C10.4512 78.2956 10.4902 78.4291 10.5208 78.5646C10.5488 78.6761 10.5704 78.7891 10.5856 78.903C10.6013 78.9881 10.6115 79.074 10.6162 79.1604C10.6237 79.2334 10.6249 79.3068 10.6198 79.38C10.6 79.38 10.5874 79.065 10.4596 78.5772C10.4256 78.445 10.3847 78.3146 10.3372 78.1866C10.2856 78.0381 10.2255 77.8927 10.1572 77.751C9.99761 77.4311 9.80389 77.1293 9.57944 76.851C9.34862 76.5737 9.08918 76.3215 8.80544 76.0986C8.68113 76.0026 8.55196 75.9131 8.41844 75.8304C8.30228 75.7549 8.1821 75.6858 8.05844 75.6234C7.61744 75.384 7.31324 75.2958 7.32044 75.2796Z" fill="#263238"/>
</svg>
