<svg width="40" height="40" viewBox="0 0 40 40" fill="none" xmlns="http://www.w3.org/2000/svg">
<path d="M8.33333 36.6667H31.6667C32.5507 36.6667 33.3986 36.3155 34.0237 35.6904C34.6488 35.0653 35 34.2174 35 33.3334V18.3334C35.0013 18.114 34.9592 17.8966 34.8763 17.6935C34.7933 17.4904 34.6711 17.3058 34.5167 17.15L21.1833 3.81669C20.8711 3.50627 20.4486 3.33203 20.0083 3.33203C19.568 3.33203 19.1456 3.50627 18.8333 3.81669L5.5 17.15C5.34252 17.3044 5.21724 17.4885 5.13141 17.6916C5.04558 17.8947 5.00092 18.1128 5 18.3334V33.3334C5 34.2174 5.35119 35.0653 5.97631 35.6904C6.60143 36.3155 7.44928 36.6667 8.33333 36.6667ZM16.6667 33.3334V25H23.3333V33.3334H16.6667ZM8.33333 19.0167L20 7.35002L31.6667 19.0167V33.3334H26.6667V25C26.6667 24.116 26.3155 23.2681 25.6904 22.643C25.0652 22.0179 24.2174 21.6667 23.3333 21.6667H16.6667C15.7826 21.6667 14.9348 22.0179 14.3096 22.643C13.6845 23.2681 13.3333 24.116 13.3333 25V33.3334H8.33333V19.0167Z" fill="white"/>
</svg>
