<svg width="30" height="30" viewBox="0 0 30 30" fill="none" xmlns="http://www.w3.org/2000/svg">
<path d="M25 11.9463V3.75H22.5V6.25H7.5V3.75H5V11.9463C3.5125 12.8125 2.5 14.4062 2.5 16.25V21.25C2.5 21.5815 2.6317 21.8995 2.86612 22.1339C3.10054 22.3683 3.41848 22.5 3.75 22.5H5V27.5H7.5V22.5H22.5V27.5H25V22.5H26.25C26.5815 22.5 26.8995 22.3683 27.1339 22.1339C27.3683 21.8995 27.5 21.5815 27.5 21.25V16.25C27.5 14.4062 26.4863 12.8125 25 11.9463ZM22.5 8.75V11.25H16.25V8.75H22.5ZM7.5 8.75H13.75V11.25H7.5V8.75ZM25 20H5V16.25C5 14.8712 6.12125 13.75 7.5 13.75H22.5C23.8788 13.75 25 14.8712 25 16.25V20Z" fill="white"/>
</svg>
