<svg width="30" height="30" viewBox="0 0 30 30" fill="none" xmlns="http://www.w3.org/2000/svg">
<path d="M15 17.5C17.7575 17.5 20 15.2575 20 12.5C20 9.7425 17.7575 7.5 15 7.5C12.2425 7.5 10 9.7425 10 12.5C10 15.2575 12.2425 17.5 15 17.5ZM15 10C16.3788 10 17.5 11.1212 17.5 12.5C17.5 13.8788 16.3788 15 15 15C13.6212 15 12.5 13.8788 12.5 12.5C12.5 11.1212 13.6212 10 15 10Z" fill="white"/>
<path d="M14.275 27.2675C14.4865 27.4186 14.74 27.4998 15 27.4998C15.26 27.4998 15.5134 27.4186 15.725 27.2675C16.105 26.9987 25.0362 20.55 25 12.5C25 6.98625 20.5137 2.5 15 2.5C9.48624 2.5 4.99999 6.98625 4.99999 12.4937C4.96374 20.55 13.895 26.9987 14.275 27.2675ZM15 5C19.1362 5 22.5 8.36375 22.5 12.5063C22.5262 18.0538 17.015 23.035 15 24.6688C12.9862 23.0338 7.47374 18.0512 7.49999 12.5C7.49999 8.36375 10.8637 5 15 5Z" fill="white"/>
</svg>
