<svg width="30" height="30" viewBox="0 0 30 30" fill="none" xmlns="http://www.w3.org/2000/svg">
<path d="M5 26.25H17.025C17.7463 26.2504 18.4592 26.0945 19.1146 25.793C19.7699 25.4916 20.3521 25.0517 20.8212 24.5038L27.1988 17.0638C27.3323 16.9082 27.4255 16.7223 27.4703 16.5222C27.515 16.3222 27.5099 16.1142 27.4553 15.9166C27.4007 15.719 27.2983 15.5379 27.1573 15.3891C27.0162 15.2404 26.8407 15.1287 26.6462 15.0638L24.1863 14.2438C23.5917 14.0505 22.9587 14.0068 22.3432 14.1164C21.7277 14.2261 21.1487 14.4858 20.6575 14.8725L16.6762 18.0563L15.905 16.5125C15.4918 15.6804 14.8539 14.9805 14.0634 14.4923C13.273 14.0041 12.3616 13.7469 11.4325 13.75H5C3.62125 13.75 2.5 14.8713 2.5 16.25V23.75C2.5 25.1288 3.62125 26.25 5 26.25ZM5 16.25H11.4325C12.3862 16.25 13.2425 16.7788 13.6688 17.6313L14.2275 18.75H8.75V21.25H16.2675C16.4598 21.2475 16.6489 21.2004 16.82 21.1125L16.8237 21.1113L16.8288 21.1088H16.8325L16.835 21.1075H16.84L16.8412 21.1063C16.8525 21.11 16.845 21.105 16.845 21.105C16.8575 21.105 16.8475 21.1038 16.8475 21.1038H16.8488L16.8512 21.1025L16.855 21.1013L16.8575 21.1L16.86 21.0988L16.8638 21.0975L16.8663 21.0963C16.87 21.0963 16.8675 21.095 16.8687 21.095L16.8725 21.0925L16.875 21.0913L16.8775 21.09L16.8813 21.0888L16.8837 21.0875H16.885L16.8875 21.0863H16.8887L16.8912 21.085L16.8938 21.0838C16.905 21.0825 16.8975 21.0825 16.8975 21.0825L16.9 21.0813C16.9482 21.0522 16.9941 21.0196 17.0375 20.9838L22.22 16.8375C22.5475 16.5775 22.9987 16.4963 23.395 16.6288L24.0913 16.8613L18.925 22.89C18.6874 23.1599 18.3951 23.3761 18.0675 23.5243C17.7399 23.6726 17.3846 23.7495 17.025 23.75H5V16.25V16.25ZM20 2.50001H19.9787C19.775 2.50251 18.7212 2.54876 17.5 3.38126C16.3113 2.57126 15.2825 2.50626 15.04 2.50126L15.0025 2.50001H14.9975C13.9963 2.50001 13.0537 2.89126 12.3487 3.59751C11.6412 4.30626 11.25 5.24751 11.25 6.25001C11.25 7.25251 11.6413 8.19376 12.3263 8.88001L16.5937 13.3625C16.7112 13.4844 16.852 13.5813 17.0077 13.6475C17.1635 13.7137 17.331 13.7477 17.5003 13.7476C17.6695 13.7475 17.837 13.7132 17.9927 13.6468C18.1483 13.5804 18.289 13.4833 18.4063 13.3613L22.6513 8.90126C23.36 8.19376 23.75 7.25251 23.75 6.25001C23.75 5.24751 23.3587 4.30626 22.6525 3.59876C22.3054 3.24944 21.8925 2.97246 21.4376 2.78386C20.9827 2.59525 20.4949 2.49877 20.0025 2.50001H20ZM21.25 6.25001C21.25 6.58376 21.12 6.89751 20.8612 7.15626L17.5 10.6875L14.1163 7.13376C13.88 6.89751 13.75 6.58376 13.75 6.25001C13.75 5.91626 13.88 5.60251 14.1175 5.36501C14.3435 5.13508 14.6513 5.00388 14.9738 5.00001C15.005 5.00126 15.6012 5.04001 16.3075 5.60626C16.4087 5.68751 16.5113 5.78001 16.6163 5.88376L17.5 6.76751L18.3837 5.88376C18.4887 5.78001 18.5913 5.68751 18.6925 5.60626C19.3538 5.07501 19.9125 5.00876 20.0075 5.00126C20.1704 5.00123 20.3317 5.03347 20.4821 5.09612C20.6325 5.15876 20.769 5.25058 20.8838 5.36626C21.12 5.60251 21.25 5.91626 21.25 6.25001Z" fill="white"/>
</svg>
