<svg width="24" height="24" viewBox="0 0 24 24" fill="none" xmlns="http://www.w3.org/2000/svg">
<path d="M21.259 11.948C21.4698 11.8939 21.6568 11.7716 21.7909 11.6001C21.9249 11.4287 21.9984 11.2176 22 11V8C22 7.73557 21.8952 7.48192 21.7085 7.29466C21.5218 7.1074 21.2684 7.00179 21.004 7.001V6H21C21 3.794 19.206 2 17 2H7C4.794 2 3 3.794 3 6V7C2.73478 7 2.48043 7.10536 2.29289 7.29289C2.10536 7.48043 2 7.73478 2 8V11C2 11.461 2.317 11.832 2.742 11.948C2.26138 12.618 2.00229 13.4215 2.001 14.246L2.005 18.003C2.006 18.736 2.409 19.372 3 19.719V21C3 21.2652 3.10536 21.5196 3.29289 21.7071C3.48043 21.8946 3.73478 22 4 22H5C5.26522 22 5.51957 21.8946 5.70711 21.7071C5.89464 21.5196 6 21.2652 6 21V20H18V21C18 21.2652 18.1054 21.5196 18.2929 21.7071C18.4804 21.8946 18.7348 22 19 22H20C20.2652 22 20.5196 21.8946 20.7071 21.7071C20.8946 21.5196 21 21.2652 21 21V19.726C21.1533 19.6404 21.2949 19.5352 21.421 19.413C21.798 19.035 22.006 18.532 22.005 17.998L22.001 14.239C21.9971 13.4169 21.7378 12.6163 21.259 11.948ZM5 18H4.005L4.001 14.243C4 13.784 4.162 13.353 4.444 13H19.555C19.838 13.353 20 13.783 20.001 14.242L20.006 18H5ZM11.004 8V11H5V8H11.004ZM19 11H13.004V8H19V11ZM7 4H17C18.103 4 19 4.897 19 6H15V5H9V6H5C5 4.897 5.897 4 7 4Z" fill="white"/>
<path d="M6.5 17C7.32843 17 8 16.3284 8 15.5C8 14.6716 7.32843 14 6.5 14C5.67157 14 5 14.6716 5 15.5C5 16.3284 5.67157 17 6.5 17Z" fill="white"/>
<path d="M17.5 17C18.3284 17 19 16.3284 19 15.5C19 14.6716 18.3284 14 17.5 14C16.6716 14 16 14.6716 16 15.5C16 16.3284 16.6716 17 17.5 17Z" fill="white"/>
</svg>
