<svg width="30" height="30" viewBox="0 0 30 30" fill="none" xmlns="http://www.w3.org/2000/svg">
<path d="M26.5738 14.935C26.8373 14.8674 27.071 14.7145 27.2386 14.5002C27.4061 14.2858 27.498 14.0221 27.5 13.75V10C27.5 9.66946 27.369 9.3524 27.1356 9.11832C26.9022 8.88424 26.5855 8.75224 26.255 8.75125V7.5H26.25C26.25 4.7425 24.0075 2.5 21.25 2.5H8.75C5.9925 2.5 3.75 4.7425 3.75 7.5V8.75C3.41848 8.75 3.10054 8.8817 2.86612 9.11612C2.6317 9.35054 2.5 9.66848 2.5 10V13.75C2.5 14.3262 2.89625 14.79 3.4275 14.935C2.82673 15.7725 2.50286 16.7768 2.50125 17.8075L2.50625 22.5038C2.5075 23.42 3.01125 24.215 3.75 24.6487V26.25C3.75 26.5815 3.8817 26.8995 4.11612 27.1339C4.35054 27.3683 4.66848 27.5 5 27.5H6.25C6.58152 27.5 6.89946 27.3683 7.13388 27.1339C7.3683 26.8995 7.5 26.5815 7.5 26.25V25H22.5V26.25C22.5 26.5815 22.6317 26.8995 22.8661 27.1339C23.1005 27.3683 23.4185 27.5 23.75 27.5H25C25.3315 27.5 25.6495 27.3683 25.8839 27.1339C26.1183 26.8995 26.25 26.5815 26.25 26.25V24.6575C26.4417 24.5505 26.6186 24.419 26.7762 24.2663C27.2475 23.7938 27.5075 23.165 27.5062 22.4975L27.5012 17.7988C27.4964 16.7711 27.1723 15.7704 26.5738 14.935ZM6.25 22.5H5.00625L5.00125 17.8038C5 17.23 5.2025 16.6912 5.555 16.25H24.4438C24.7975 16.6912 25 17.2287 25.0012 17.8025L25.0075 22.5H6.25ZM13.755 10V13.75H6.25V10H13.755ZM23.75 13.75H16.255V10H23.75V13.75ZM8.75 5H21.25C22.6288 5 23.75 6.12125 23.75 7.5H18.75V6.25H11.25V7.5H6.25C6.25 6.12125 7.37125 5 8.75 5Z" fill="white"/>
<path d="M8.125 21.25C9.16053 21.25 10 20.4105 10 19.375C10 18.3395 9.16053 17.5 8.125 17.5C7.08947 17.5 6.25 18.3395 6.25 19.375C6.25 20.4105 7.08947 21.25 8.125 21.25Z" fill="white"/>
<path d="M21.875 21.25C22.9105 21.25 23.75 20.4105 23.75 19.375C23.75 18.3395 22.9105 17.5 21.875 17.5C20.8395 17.5 20 18.3395 20 19.375C20 20.4105 20.8395 21.25 21.875 21.25Z" fill="white"/>
</svg>
